<svg width="530" height="1024" viewBox="0 0 530 1024" fill="none" xmlns="http://www.w3.org/2000/svg">
<mask id="mask0" mask-type="alpha" maskUnits="userSpaceOnUse" x="0" y="0" width="530" height="1025">
<rect width="530" height="1025" fill="#C4C4C4"/>
</mask>
<g mask="url(#mask0)">
<path d="M195.745 332.575C195.165 334.021 194.867 335.569 194.871 337.132C194.876 340.265 196.101 343.268 198.275 345.481L230.693 380.532C231.36 381.204 232.105 381.793 232.91 382.284C230.842 383.574 229.172 385.433 228.092 387.648C227.012 389.862 226.565 392.342 226.803 394.803C227.041 397.265 227.954 399.608 229.438 401.564C230.921 403.521 232.915 405.011 235.19 405.864V444.502C235.138 445.143 235.216 445.789 235.421 446.397C235.626 447.006 235.952 447.564 236.379 448.038C236.806 448.511 237.325 448.889 237.902 449.147C238.479 449.406 239.103 449.539 239.734 449.539C240.364 449.539 240.988 449.406 241.565 449.147C242.143 448.889 242.661 448.511 243.088 448.038C243.515 447.564 243.842 447.006 244.046 446.397C244.251 445.789 244.33 445.143 244.278 444.502V405.705C246.634 404.82 248.686 403.252 250.182 401.194C251.678 399.136 252.553 396.677 252.699 394.119C252.845 391.561 252.256 389.015 251.004 386.794C249.752 384.573 247.892 382.773 245.652 381.615C246.176 381.246 246.667 380.83 247.119 380.372L279.537 345.512C281.14 343.851 282.228 341.745 282.664 339.457C283.099 337.169 282.864 334.8 281.988 332.648C281.111 330.495 279.632 328.654 277.735 327.354C275.839 326.055 273.609 325.355 271.324 325.342H244.278V290.291C244.183 289.128 243.663 288.043 242.822 287.253C241.98 286.462 240.878 286.024 239.734 286.024C238.59 286.024 237.488 286.462 236.646 287.253C235.804 288.043 235.284 289.128 235.19 290.291V325.342H206.332C204.068 325.36 201.858 326.055 199.977 327.341C198.095 328.626 196.624 330.446 195.745 332.575ZM243.622 393.341C243.622 394.13 243.392 394.902 242.962 395.557C242.531 396.213 241.92 396.723 241.205 397.024C240.49 397.324 239.703 397.401 238.945 397.245C238.187 397.089 237.491 396.706 236.947 396.146C236.402 395.586 236.033 394.873 235.886 394.098C235.739 393.324 235.82 392.522 236.121 391.795C236.421 391.067 236.926 390.448 237.572 390.014C238.218 389.58 238.976 389.352 239.749 389.358C240.779 389.366 241.764 389.79 242.489 390.536C243.215 391.282 243.622 392.29 243.622 393.341ZM271.324 334.519C271.827 334.509 272.321 334.657 272.74 334.941C273.158 335.226 273.482 335.635 273.666 336.112C273.794 336.447 273.858 336.804 273.854 337.164C273.856 337.498 273.791 337.829 273.662 338.136C273.533 338.443 273.343 338.72 273.104 338.948L240.53 373.808C240.302 374.056 240.026 374.252 239.72 374.384C239.413 374.515 239.083 374.58 238.75 374.573C238.413 374.577 238.079 374.511 237.768 374.379C237.456 374.248 237.174 374.054 236.939 373.808L204.708 338.948C204.34 338.592 204.088 338.128 203.988 337.621C203.887 337.113 203.942 336.587 204.146 336.112C204.327 335.632 204.649 335.221 205.069 334.936C205.488 334.65 205.984 334.505 206.488 334.519H271.324Z" fill="#f5e0bb"/>
<path fill-rule="evenodd" clip-rule="evenodd" d="M131.597 1019.86C126.726 1024.73 119.234 1024.73 114.364 1019.86C110.617 1016.11 109.868 1010.49 112.116 1005.62L82.8947 976.385C82.1454 975.635 81.7708 974.886 81.7708 973.761V912.668L40.9362 871.815C40.1869 871.065 39.8123 870.316 39.8123 869.191V805.475C39.8123 803.226 41.3108 801.727 43.5586 801.727C45.8064 801.727 47.3049 803.226 47.3049 805.475V868.067L64.5379 885.308V709.042C64.5379 709.042 64.5379 705.294 68.1 705.294C72.2908 705.294 72.0304 709.042 72.0304 709.042V823.465L99.753 851.575C100.502 852.325 100.877 853.075 100.877 854.199V868.067C105.747 869.566 109.119 874.064 109.119 879.686C109.119 886.432 103.499 892.054 97.1306 892.054C90.3873 892.054 84.7678 886.432 84.7678 879.686C84.7678 874.438 88.5141 869.566 93.3843 868.067V855.698L72.4051 833.96V892.804L116.237 936.656C116.986 937.405 117.361 938.155 117.361 939.279V950.523C122.231 952.023 125.602 956.52 125.602 962.142C125.602 968.889 119.983 974.511 113.24 974.511C106.496 974.511 100.877 968.889 100.877 962.142C100.877 956.895 104.249 952.023 109.493 950.523V940.779L88.8888 920.164V972.262L116.986 1000.37C121.856 997.748 127.476 998.873 131.222 1002.62C136.467 1007.49 136.467 1014.99 131.597 1019.86ZM102.001 879.311C102.001 881.934 100.128 884.183 97.5052 884.183C94.8828 884.183 92.6351 881.934 92.6351 879.311C92.6351 876.687 94.8828 874.438 97.5052 874.438C99.753 874.438 102.001 876.687 102.001 879.311ZM118.484 962.142C118.484 964.766 116.237 967.015 113.614 967.015C110.992 967.015 109.119 964.766 108.744 962.142C108.744 959.519 110.992 957.27 113.614 957.27C116.237 957.27 118.484 959.519 118.484 962.142ZM119.608 1007.87C121.482 1005.99 124.479 1005.99 126.352 1007.87C128.225 1009.74 128.225 1012.74 126.352 1014.61C124.479 1016.49 121.482 1016.49 119.608 1014.61C117.735 1012.74 117.735 1009.74 119.608 1007.87Z" fill="#f5e0bb"/>
<path d="M95.1559 673.239C95.9051 673.989 96.2798 674.738 96.2798 675.863V708.096C101.15 709.595 104.522 714.093 104.522 719.715C104.522 726.461 98.9022 732.083 92.1588 732.083C85.4155 732.083 79.7961 726.461 79.7961 719.715C79.7961 714.468 83.1677 709.595 88.4125 708.096V677.362L56.9437 645.879V666.868L72.3035 682.234C73.0527 682.984 73.4274 683.734 73.4274 684.858V732.833L96.2798 752.323C98.1529 751.573 100.026 750.823 101.899 750.823C108.643 750.823 114.262 756.445 114.262 763.192C114.262 769.938 108.643 775.186 102.274 775.186C95.9051 775.186 89.9111 769.938 89.9111 762.817C89.9111 760.943 90.2857 759.069 91.035 757.57L67.4333 737.331C66.684 736.581 66.3094 735.456 66.3094 734.332V711.844L47.2033 730.959V782.307C52.0735 783.806 55.8198 788.304 55.8198 793.926C55.4452 800.297 50.2003 805.919 43.457 805.919C36.7137 805.919 31.0942 800.297 31.0942 793.551C31.0942 788.304 34.4659 783.806 39.3361 781.932V729.46C39.3361 728.335 39.7107 727.586 40.46 726.836L65.9348 701.349V685.982L53.1974 673.239L15.7344 710.72V732.083C20.9793 733.582 24.7255 738.455 24.7255 743.702C24.7255 750.449 19.1061 756.071 12.3628 756.071C5.61945 756.071 0 750.449 0 743.702C0 738.455 3.37167 733.957 8.24185 732.083V709.22C8.24185 708.096 8.61648 707.346 9.36574 706.597L49.4511 666.493V562.298C49.4511 560.049 50.9496 558.55 53.1974 558.55C55.4452 558.55 56.9437 560.049 56.9437 562.298V635.009L95.1559 673.239ZM92.5335 724.212C95.1559 724.212 97.4037 721.964 97.4037 719.34C97.4037 716.716 95.1559 714.842 92.9081 714.842C90.2857 714.842 88.4125 717.091 88.4125 719.34C88.0379 721.964 89.9111 724.212 92.5335 724.212ZM101.899 767.69C104.522 767.69 106.769 765.441 106.769 762.817C106.769 760.193 104.522 758.319 101.899 758.319C99.2768 758.319 97.029 760.568 97.029 763.192C97.4036 765.441 99.2768 767.69 101.899 767.69ZM43.457 798.423C46.0794 798.423 48.3272 796.175 48.3272 793.551C48.3272 790.927 46.0794 789.053 43.8316 789.053C41.2092 789.053 39.3361 790.927 39.3361 793.551C38.5868 796.175 40.8346 798.423 43.457 798.423ZM12.3628 748.2C14.9852 748.2 17.233 745.951 17.233 743.327C17.233 740.704 14.9852 738.455 12.3628 738.455C9.74037 738.455 7.49259 740.329 7.49259 743.327C7.86722 746.326 9.74037 748.2 12.3628 748.2Z" fill="#f5e0bb"/>
<path fill-rule="evenodd" clip-rule="evenodd" d="M462.681 632.199V722.442C457.492 724.04 453.501 728.831 453.501 734.821C453.501 742.008 459.488 747.998 466.672 747.998C473.856 747.998 479.843 741.609 479.843 734.422C479.843 728.831 476.251 723.64 471.062 722.043V630.203C471.062 629.005 470.663 628.206 469.865 627.408L412.392 569.908L404.409 571.505C404.409 572.703 404.808 573.501 405.607 574.3L462.681 632.199ZM461.484 734.422C461.484 737.217 463.878 739.613 466.672 739.613C469.466 739.613 471.861 737.217 471.062 734.422C471.062 732.026 469.067 729.63 466.273 729.63C463.878 729.63 461.484 731.626 461.484 734.422Z" fill="#f5e0bb"/>
<path fill-rule="evenodd" clip-rule="evenodd" d="M412.392 521.592L437.536 533.172V552.338C432.348 553.935 428.357 558.727 428.357 564.717C428.357 571.904 434.343 577.894 441.528 577.894C448.712 577.894 454.699 571.904 454.699 564.717C454.699 559.126 451.106 553.935 445.918 552.338V530.776C445.918 529.179 445.12 527.981 443.523 527.182L412.392 512.807V521.592ZM436.339 564.317C436.339 567.113 438.734 569.508 441.528 569.508C443.922 569.508 446.317 567.113 445.918 564.317C445.918 561.922 443.922 559.526 441.128 559.526C438.734 559.526 436.339 561.522 436.339 564.317Z" fill="#f5e0bb"/>
<path d="M306.878 120.975C307.84 121.938 308.321 122.901 308.321 124.345V165.745C314.577 167.671 318.907 173.448 318.907 180.669C318.907 189.334 311.69 196.555 303.029 196.555C294.367 196.555 287.15 189.334 287.15 180.669C287.15 173.929 291.48 167.671 298.217 165.745V126.271L257.798 85.833V112.791L277.526 132.529C278.488 133.492 278.97 134.454 278.97 135.899V197.518L308.321 222.551C310.727 221.588 313.133 220.625 315.539 220.625C324.2 220.625 331.418 227.846 331.418 236.511C331.418 245.176 324.2 251.916 316.02 251.916C307.84 251.916 300.141 245.176 300.141 236.03C300.141 233.623 300.623 231.216 301.585 229.29L271.271 203.295C270.308 202.332 269.827 200.888 269.827 199.443V170.559L245.287 195.111V261.063C251.543 262.988 256.354 268.765 256.354 275.986C255.873 284.17 249.137 291.391 240.475 291.391C231.814 291.391 224.597 284.17 224.597 275.505C224.597 268.765 228.927 262.988 235.182 260.581V193.185C235.182 191.741 235.664 190.778 236.626 189.815L269.346 157.08V137.343L252.986 120.975L204.868 169.115V196.555C211.605 198.481 216.417 204.739 216.417 211.478C216.417 220.144 209.199 227.365 200.538 227.365C191.877 227.365 184.659 220.144 184.659 211.478C184.659 204.739 188.989 198.962 195.245 196.555V167.19C195.245 165.745 195.726 164.783 196.688 163.82L248.174 112.31V-21.5192C248.174 -24.4076 250.099 -26.3332 252.986 -26.3332C255.873 -26.3332 257.798 -24.4076 257.798 -21.5192V71.8724L306.878 120.975ZM303.51 186.446C306.878 186.446 309.765 183.557 309.765 180.187C309.765 176.818 306.878 174.411 303.991 174.411C300.623 174.411 298.217 177.299 298.217 180.187C297.736 183.557 300.141 186.446 303.51 186.446ZM315.539 242.288C318.907 242.288 321.794 239.4 321.794 236.03C321.794 232.66 318.907 230.253 315.539 230.253C312.171 230.253 309.284 233.141 309.284 236.511C309.765 239.4 312.171 242.288 315.539 242.288ZM240.475 281.763C243.844 281.763 246.731 278.874 246.731 275.505C246.731 272.135 243.844 269.728 240.957 269.728C237.588 269.728 235.182 272.135 235.182 275.505C234.22 278.874 237.107 281.763 240.475 281.763ZM200.538 217.255C203.906 217.255 206.793 214.367 206.793 210.997C206.793 207.627 203.906 204.739 200.538 204.739C197.169 204.739 194.282 207.146 194.282 210.997C194.764 214.848 197.169 217.255 200.538 217.255Z" fill="#f5e0bb"/>
<path d="M161.081 146.971V255.767C167.337 257.693 172.148 263.47 172.148 270.691C172.148 279.356 164.931 286.577 156.27 286.577C147.608 286.577 140.391 278.874 140.391 270.209C140.391 263.47 144.721 257.211 150.977 255.286V144.564C150.977 143.12 151.458 142.157 152.42 141.194L221.71 71.8723V13.6229L191.396 27.5835V50.6907C197.651 52.6163 202.463 58.3931 202.463 65.6141C202.463 74.2793 195.245 81.5003 186.584 81.5003C177.923 81.5003 170.705 74.2793 170.705 65.6141C170.705 58.8745 175.036 52.6163 181.291 50.6907V24.6951C181.291 22.7695 182.253 21.3253 184.178 20.3625L221.71 3.03208V-21.5193C221.71 -24.4077 223.634 -26.3333 226.522 -26.3333C229.409 -26.3333 231.333 -24.4077 231.333 -21.5193V73.7979C231.333 75.2421 230.852 76.2049 229.89 77.1677L161.081 146.971ZM156.27 276.467C159.638 276.467 162.525 273.579 162.525 270.209C162.525 266.839 159.638 264.432 156.751 264.432C153.383 264.432 150.977 267.321 150.977 270.209C150.014 273.579 152.901 276.467 156.27 276.467ZM186.584 71.3909C189.952 71.3909 192.839 68.5025 192.839 65.1327C192.839 61.7629 189.952 59.3559 187.065 59.3559C183.697 59.3559 181.291 62.2443 181.291 65.1327C180.81 68.5025 183.697 71.3909 186.584 71.3909Z" fill="#f5e0bb"/>
<path fill-rule="evenodd" clip-rule="evenodd" d="M42.3499 562.006C48.6052 568.264 58.2287 568.264 64.484 562.006C69.2958 557.192 70.2582 549.971 67.3711 543.712L104.903 506.163C105.865 505.2 106.346 504.238 106.346 502.793V424.325L158.795 371.853C159.757 370.89 160.238 369.927 160.238 368.483V286.645C160.238 283.756 158.314 281.831 155.427 281.831C152.54 281.831 150.615 283.756 150.615 286.645V367.039L128.481 389.183L118.376 398.811L62.0782 455.135C61.1158 456.098 60.6346 457.06 60.6346 458.505V472.947C54.3793 474.872 50.0487 480.649 50.0487 487.87C50.0487 496.535 57.2664 503.756 65.9276 503.756C74.5888 503.756 81.8064 496.535 81.8064 487.87C81.8064 481.13 77.4758 474.872 70.7393 472.947V460.43L97.2041 433.953V500.868L61.1158 536.973C54.8605 533.603 47.6428 535.047 42.8311 539.861C36.0946 546.119 36.0946 555.747 42.3499 562.006ZM59.1911 487.87C59.1911 491.24 62.0782 494.128 65.4464 494.128C68.8146 494.128 71.2205 491.24 71.7017 487.87C71.7017 484.5 68.8146 481.612 65.4464 481.612C62.0782 481.612 59.1911 484.5 59.1911 487.87ZM57.7476 546.601C55.3417 544.194 51.4922 544.194 49.0864 546.601C46.6805 549.008 46.6805 552.859 49.0864 555.266C51.4922 557.673 55.3417 557.673 57.7476 555.266C60.1535 552.859 60.1535 549.008 57.7476 546.601Z" fill="#f5e0bb"/>
<path d="M333.359 905.613C332.899 905.154 332.277 904.895 331.626 904.895H278.175C277.525 904.895 276.902 905.154 276.443 905.613L260.996 921.071C260.536 921.531 260.278 922.153 260.278 922.804V969.949C260.278 970.6 260.536 971.223 260.996 971.683L276.443 987.14C276.902 987.6 277.525 987.858 278.175 987.858H331.626C332.277 987.858 332.899 987.6 333.359 987.14L348.809 971.683C349.269 971.223 349.527 970.6 349.527 969.949V922.804C349.527 922.153 349.269 921.531 348.809 921.071L333.359 905.613ZM344.626 968.934L330.611 982.955H279.19L265.179 968.934V923.819L279.19 909.799H330.611L344.626 923.819V968.934Z" fill="#f5e0bb"/>
<path d="M381.326 934.354C382.486 940.801 388.106 945.716 394.879 945.716C402.467 945.716 408.641 939.523 408.641 931.909C408.641 924.298 402.467 918.105 394.879 918.105C388.111 918.105 382.493 923.013 381.327 929.451H365.861V916.78H378.65C380.003 916.78 381.101 915.682 381.101 914.329C381.101 912.975 380.003 911.877 378.65 911.877H363.411C363.208 911.877 363.028 911.946 362.84 911.992L340.127 889.268C339.667 888.809 339.045 888.55 338.394 888.55H333.707V875.755C333.707 874.402 332.609 873.303 331.256 873.303C329.903 873.303 328.805 874.402 328.805 875.755V888.55H316.147V873.077C322.581 871.909 327.484 866.289 327.484 859.519C327.484 851.927 321.294 845.75 313.687 845.75C306.077 845.75 299.886 851.927 299.886 859.519C299.886 866.296 304.8 871.919 311.246 873.079V888.55H298.565V875.755C298.565 874.402 297.468 873.303 296.115 873.303C294.762 873.303 293.664 874.402 293.664 875.755V888.55H280.99V873.078C287.432 871.916 292.343 866.294 292.343 859.519C292.343 851.927 286.153 845.75 278.543 845.75C270.935 845.75 264.745 851.927 264.745 859.519C264.745 866.292 269.652 871.912 276.089 873.078V888.55H271.408C270.757 888.55 270.134 888.809 269.675 889.268L246.959 911.992C246.771 911.946 246.59 911.877 246.388 911.877H231.151C229.798 911.877 228.701 912.975 228.701 914.329C228.701 915.682 229.798 916.78 231.151 916.78H243.937V929.451H228.471C227.306 923.013 221.688 918.105 214.922 918.105C207.331 918.105 201.157 924.298 201.157 931.909C201.157 939.523 207.331 945.716 214.922 945.716C221.693 945.716 227.312 940.801 228.473 934.354H243.937V947.038H231.151C229.798 947.038 228.701 948.136 228.701 949.489C228.701 950.843 229.798 951.941 231.151 951.941H243.937V964.628H228.473C227.315 958.18 221.695 953.263 214.922 953.263C207.331 953.263 201.157 959.456 201.157 967.066C201.157 974.68 207.331 980.873 214.922 980.873C221.686 980.873 227.303 975.969 228.471 969.531H243.937V976.72C243.937 977.371 244.196 977.994 244.655 978.454L269.675 1003.48C270.134 1003.94 270.757 1004.2 271.408 1004.2H276.089V1019.68C269.652 1020.84 264.745 1026.46 264.745 1033.23C264.745 1040.82 270.935 1047 278.542 1047C286.153 1047 292.343 1040.82 292.343 1033.23C292.343 1026.46 287.432 1020.84 280.99 1019.68V1004.2H293.664V1017C293.664 1018.35 294.762 1019.45 296.115 1019.45C297.468 1019.45 298.565 1018.35 298.565 1017V1004.2H311.246V1019.67C304.8 1020.83 299.886 1026.46 299.886 1033.23C299.886 1040.82 306.077 1047 313.687 1047C321.294 1047 327.484 1040.82 327.484 1033.23C327.484 1026.46 322.581 1020.84 316.147 1019.68V1004.2H328.805V1017C328.805 1018.35 329.903 1019.45 331.256 1019.45C332.609 1019.45 333.707 1018.35 333.707 1017V1004.2H338.394C339.045 1004.2 339.667 1003.94 340.127 1003.48L365.143 978.454C365.603 977.994 365.861 977.371 365.861 976.72V969.531H381.328C382.496 975.969 388.112 980.873 394.879 980.873C402.467 980.873 408.641 974.68 408.641 967.066C408.641 959.456 402.467 953.263 394.879 953.263C388.104 953.263 382.483 958.18 381.325 964.628H365.861V951.941H378.65C380.003 951.941 381.101 950.843 381.101 949.489C381.101 948.136 380.003 947.038 378.65 947.038H365.861V934.354L381.326 934.354ZM394.879 923.009C399.764 923.009 403.74 927.002 403.74 931.909C403.74 936.819 399.764 940.812 394.879 940.812C389.972 940.812 385.98 936.819 385.98 931.909C385.98 927.002 389.972 923.009 394.879 923.009ZM304.788 859.519C304.788 854.631 308.779 850.654 313.687 850.654C318.591 850.654 322.583 854.631 322.583 859.519C322.583 864.423 318.601 868.411 313.704 868.42L313.696 868.419C313.692 868.419 313.688 868.422 313.683 868.422C308.777 868.419 304.788 864.427 304.788 859.519ZM269.646 859.519C269.646 854.631 273.638 850.654 278.542 850.654C283.45 850.654 287.442 854.631 287.442 859.519C287.442 864.426 283.455 868.417 278.551 868.421C278.547 868.421 278.543 868.419 278.539 868.419L278.53 868.421C273.631 868.414 269.646 864.424 269.646 859.519ZM214.922 940.812C210.034 940.812 206.058 936.819 206.058 931.909C206.058 927.002 210.034 923.009 214.922 923.009C219.815 923.009 223.795 926.983 223.815 931.873C223.815 931.883 223.809 931.892 223.809 931.902C223.809 931.914 223.816 931.924 223.816 931.936C223.801 936.833 219.818 940.812 214.922 940.812ZM214.922 975.97C210.034 975.97 206.058 971.976 206.058 967.066C206.058 962.16 210.034 958.166 214.922 958.166C219.819 958.166 223.804 962.148 223.816 967.043C223.816 967.056 223.809 967.066 223.809 967.079C223.809 967.089 223.814 967.097 223.815 967.107C223.792 971.997 219.813 975.97 214.922 975.97ZM287.442 1033.23C287.442 1038.12 283.45 1042.1 278.542 1042.1C273.638 1042.1 269.646 1038.12 269.646 1033.23C269.646 1028.32 273.638 1024.33 278.542 1024.33C283.45 1024.33 287.442 1028.32 287.442 1033.23ZM322.583 1033.23C322.583 1038.12 318.591 1042.1 313.687 1042.1C308.779 1042.1 304.788 1038.12 304.788 1033.23C304.788 1028.32 308.779 1024.33 313.687 1024.33C318.591 1024.33 322.583 1028.32 322.583 1033.23ZM394.879 958.166C399.764 958.166 403.74 962.16 403.74 967.066C403.74 971.976 399.764 975.97 394.879 975.97C389.972 975.97 385.98 971.976 385.98 967.066C385.98 962.16 389.972 958.166 394.879 958.166ZM337.379 999.297H272.422L248.838 975.705V917.045L272.422 893.454C286.436 893.454 313.459 893.454 337.379 893.454L360.96 917.045V931.823C360.959 931.851 360.944 931.875 360.944 931.902C360.944 931.93 360.959 931.954 360.96 931.981V967C360.959 967.028 360.944 967.051 360.944 967.079C360.944 967.107 360.959 967.13 360.96 967.158V975.705L337.379 999.297Z" fill="#f5e0bb"/>
<path d="M259.543 528.973H219.674C217.409 528.973 215.597 530.786 215.597 533.052V572.712C215.597 574.978 217.409 576.791 219.674 576.791H259.316C261.581 576.791 263.393 574.978 263.393 572.712V533.052C263.62 530.786 261.808 528.973 259.543 528.973ZM255.465 568.859H223.752V537.131H255.465V568.859Z" fill="#f5e0bb"/>
<path d="M317.306 557.075C319.118 563.42 325.008 568.179 332.03 568.179C340.412 568.179 347.207 561.381 347.207 552.995C347.207 544.61 340.412 537.811 332.03 537.811C325.008 537.811 319.118 542.57 317.306 548.916H285.819V533.279H299.864C301.676 533.279 303.262 532.145 303.715 530.332L307.566 516.281H317.08C318.892 522.627 324.781 527.386 331.804 527.386C340.185 527.386 346.981 520.587 346.981 512.202C346.981 503.817 340.185 497.018 331.804 497.018C324.781 497.018 318.892 501.777 317.08 508.123H304.394C302.582 508.123 300.996 509.256 300.543 511.069L296.692 525.12H285.819V518.774C285.819 512.202 280.383 506.763 273.814 506.763H267.471V495.885L281.515 492.032C283.328 491.579 284.46 489.992 284.46 488.179V475.488C290.803 473.675 295.56 467.783 295.56 460.757C295.56 452.372 288.764 445.573 280.383 445.573C272.001 445.573 265.206 452.372 265.206 460.757C265.206 467.783 269.963 473.675 276.305 475.488V485.007L262.261 488.633C260.449 489.086 259.316 490.672 259.316 492.485V506.536H243.686V475.262C250.028 473.448 254.785 467.556 254.785 460.531C254.785 452.145 247.99 445.346 239.608 445.346C231.227 445.346 224.431 452.145 224.431 460.531C224.431 467.556 229.188 473.448 235.531 475.262V506.763H219.901V492.712C219.901 490.899 218.768 489.313 216.956 488.859L202.911 485.007V475.488C209.254 473.675 214.011 467.783 214.011 460.757C214.011 452.372 207.215 445.573 198.834 445.573C190.453 445.573 183.657 452.372 183.657 460.757C183.657 467.783 188.414 473.675 194.757 475.488V488.179C194.757 489.992 195.889 491.579 197.701 492.032L211.746 495.885V506.763H205.403C198.834 506.763 193.397 512.202 193.397 518.774V525.12H182.524L178.447 511.069C177.994 509.256 176.408 508.123 174.596 508.123H161.91C160.098 501.777 154.209 497.018 147.186 497.018C138.805 497.018 132.009 503.817 132.009 512.202C132.009 520.587 138.805 527.386 147.186 527.386C154.209 527.386 160.098 522.627 161.91 516.281H171.424L175.275 530.332C175.728 532.145 177.314 533.279 179.126 533.279H193.171V548.916H161.91C160.098 542.57 154.209 537.811 147.186 537.811C138.805 537.811 132.009 544.61 132.009 552.995C132.009 561.381 138.805 568.179 147.186 568.179C154.209 568.179 160.098 563.42 161.91 557.075H193.397V572.712H179.353C177.541 572.712 175.955 573.845 175.502 575.658L171.651 589.709H162.137C160.325 583.364 154.435 578.604 147.413 578.604C139.032 578.604 132.236 585.403 132.236 593.789C132.236 602.174 139.032 608.973 147.413 608.973C154.435 608.973 160.325 604.214 162.137 597.868H174.822C176.635 597.868 178.22 596.735 178.673 594.922L182.524 580.871H193.397V587.216C193.397 593.789 198.834 599.228 205.403 599.228H211.746V610.106L197.701 614.185C195.889 614.638 194.757 616.225 194.757 618.038V630.729C188.414 632.542 183.657 638.435 183.657 645.46C183.657 653.845 190.453 660.644 198.834 660.644C207.215 660.644 214.011 653.845 214.011 645.46C214.011 638.435 209.254 632.542 202.911 630.729V621.211L216.956 617.358C218.768 616.905 219.901 615.318 219.901 613.505V599.454H235.531V630.956C229.188 632.769 224.431 638.661 224.431 645.687C224.431 654.072 231.227 660.871 239.608 660.871C247.99 660.871 254.785 654.072 254.785 645.687C254.785 638.661 250.028 632.769 243.686 630.956V599.228H259.316V613.279C259.316 615.092 260.449 616.678 262.261 617.131L276.305 620.984V630.502C269.963 632.316 265.206 638.208 265.206 645.233C265.206 653.619 272.001 660.418 280.383 660.418C288.764 660.418 295.56 653.619 295.56 645.233C295.56 638.208 290.803 632.316 284.46 630.502V617.811C284.46 615.998 283.328 614.412 281.515 613.959L267.471 610.106V599.228H273.814C280.383 599.228 285.819 593.789 285.819 587.216V580.871H296.692L300.543 594.922C300.996 596.735 302.582 597.868 304.394 597.868H317.08C318.892 604.214 324.781 608.973 331.804 608.973C340.185 608.973 346.981 602.174 346.981 593.789C346.981 585.403 340.185 578.604 331.804 578.604C324.781 578.604 318.892 583.364 317.08 589.709H307.566L303.941 575.658C303.488 573.845 301.903 572.712 300.09 572.712H286.046V557.075H317.306ZM332.03 545.97C335.881 545.97 339.279 549.143 339.279 553.222C339.279 557.075 336.108 560.247 332.03 560.247C328.179 560.247 324.782 557.075 324.782 553.222C324.782 549.143 327.953 545.97 332.03 545.97ZM332.03 504.95C335.881 504.95 339.279 508.123 339.279 512.202C339.279 516.281 336.108 519.228 332.03 519.228C328.179 519.228 324.782 516.055 324.782 512.202C324.782 508.349 327.953 504.95 332.03 504.95ZM273.36 460.531C273.36 456.678 276.532 453.278 280.609 453.278C284.46 453.278 287.858 456.451 287.858 460.531C287.858 464.61 284.687 467.783 280.609 467.783C276.532 467.783 273.36 464.61 273.36 460.531ZM232.586 460.531C232.586 456.678 235.757 453.278 239.835 453.278C243.686 453.278 247.084 456.451 247.084 460.531C247.084 464.61 243.912 467.783 239.835 467.783C235.757 467.783 232.586 464.61 232.586 460.531ZM191.585 460.531C191.585 456.678 194.757 453.278 198.834 453.278C202.911 453.278 206.083 456.451 206.083 460.531C206.083 464.61 202.911 467.783 198.834 467.783C194.757 467.783 191.585 464.61 191.585 460.531ZM147.186 519.228C143.335 519.228 139.938 516.055 139.938 512.202C139.938 508.349 143.109 504.95 147.186 504.95C151.264 504.95 154.435 508.123 154.435 512.202C154.435 516.281 151.264 519.228 147.186 519.228ZM147.186 560.021C143.335 560.021 139.938 556.848 139.938 552.769C139.938 548.916 143.109 545.743 147.186 545.743C151.264 545.743 154.435 548.916 154.435 552.769C154.435 556.848 151.264 560.021 147.186 560.021ZM147.186 601.041C143.335 601.041 139.938 597.868 139.938 593.789C139.938 589.936 143.109 586.763 147.186 586.763C151.264 586.763 154.435 589.936 154.435 593.789C154.435 597.868 151.264 601.041 147.186 601.041ZM205.856 645.46C205.856 649.313 202.685 652.712 198.607 652.712C194.53 652.712 191.359 649.539 191.359 645.46C191.359 641.381 194.53 638.208 198.607 638.208C202.685 638.208 205.856 641.381 205.856 645.46ZM246.857 645.46C246.857 649.313 243.686 652.712 239.608 652.712C235.757 652.712 232.36 649.539 232.36 645.46C232.36 641.381 235.531 638.208 239.608 638.208C243.459 638.208 246.857 641.381 246.857 645.46ZM287.632 645.46C287.632 649.313 284.46 652.712 280.383 652.712C276.532 652.712 273.134 649.539 273.134 645.46C273.134 641.381 276.305 638.208 280.383 638.208C284.46 638.208 287.632 641.381 287.632 645.46ZM332.03 586.763C335.881 586.763 339.279 589.936 339.279 593.789C339.279 597.641 336.108 601.041 332.03 601.041C328.179 601.041 324.782 597.868 324.782 593.789C324.782 589.936 327.953 586.763 332.03 586.763ZM277.664 587.216C277.664 589.483 275.852 591.069 273.814 591.069H205.403C203.138 591.069 201.552 589.256 201.552 587.216V518.774C201.552 516.508 203.364 514.922 205.403 514.922H273.814C276.079 514.922 277.664 516.735 277.664 518.774V587.216Z" fill="#f5e0bb"/>
<path fill-rule="evenodd" clip-rule="evenodd" d="M382.177 858.396C382.169 855.072 381.078 851.842 379.069 849.195C377.061 846.548 374.244 844.628 371.047 843.727V825.925C371.043 824.914 370.637 823.945 369.92 823.232L344.319 797.6V764.805C344.319 763.792 343.917 762.82 343.201 762.104C342.485 761.388 341.513 760.985 340.501 760.985H304.227L304.227 724.695H355.774V785.815C355.773 786.338 355.879 786.855 356.086 787.334C356.293 787.814 356.596 788.246 356.977 788.604L385.403 815.344C385.947 815.855 386.628 816.196 387.362 816.324C388.097 816.452 388.853 816.363 389.537 816.066C390.221 815.77 390.803 815.279 391.212 814.655C391.621 814.031 391.838 813.301 391.837 812.555V729.508C391.838 728.999 391.737 728.496 391.54 728.027C391.343 727.558 391.055 727.133 390.692 726.777L363.41 700.17V659.373C366.812 658.632 369.859 656.752 372.046 654.042C374.234 651.333 375.43 647.957 375.438 644.474C375.465 641.603 374.69 638.782 373.2 636.328C371.71 633.874 369.565 631.885 367.006 630.586C364.447 629.286 361.576 628.727 358.716 628.972C355.857 629.218 353.123 630.257 350.822 631.973C348.522 633.689 346.746 636.014 345.695 638.686C344.644 641.358 344.36 644.27 344.875 647.095C345.39 649.919 346.683 652.544 348.608 654.673C350.534 656.801 353.016 658.35 355.774 659.143V701.775C355.773 702.283 355.874 702.787 356.071 703.256C356.268 703.725 356.556 704.15 356.919 704.506L384.201 731.113L384.201 803.693L363.41 784.173V720.875C363.41 719.862 363.008 718.89 362.292 718.174C361.576 717.457 360.605 717.055 359.592 717.055H300.409C299.396 717.055 298.425 717.457 297.709 718.174C296.993 718.89 296.591 719.862 296.591 720.875L296.591 760.985H275.59C274.578 760.985 273.607 761.388 272.891 762.104C272.174 762.82 271.772 763.792 271.772 764.805V801.305L260.317 811.619V733.844L284.124 708.192C284.777 707.485 285.138 706.557 285.136 705.595V659.143L277.5 659.372V704.086L253.693 729.737C253.04 730.445 252.679 731.372 252.681 732.335V820.195C252.679 820.935 252.892 821.66 253.293 822.281C253.695 822.902 254.268 823.393 254.944 823.694C255.619 823.996 256.367 824.094 257.097 823.978C257.828 823.862 258.508 823.537 259.057 823.041L278.149 805.851C278.547 805.492 278.864 805.053 279.082 804.562C279.299 804.072 279.41 803.542 279.409 803.005V768.625H336.683V799.185C336.687 800.197 337.092 801.165 337.809 801.878L363.41 827.511V843.498C360.617 844.154 358.064 845.585 356.046 847.626C354.028 849.668 352.625 852.236 351.999 855.038C351.373 857.84 351.548 860.762 352.505 863.469C353.463 866.175 355.163 868.557 357.411 870.342C359.659 872.127 362.364 873.242 365.216 873.559C368.068 873.876 370.952 873.383 373.537 872.136C376.122 870.889 378.304 868.939 379.832 866.509C381.36 864.079 382.173 861.267 382.177 858.396ZM353.524 640.12C352.687 641.416 352.254 642.931 352.28 644.474C352.28 645.489 352.482 646.494 352.874 647.429C353.266 648.365 353.84 649.213 354.564 649.925C355.287 650.636 356.145 651.196 357.087 651.572C358.029 651.948 359.036 652.132 360.05 652.114C361.593 652.114 363.1 651.655 364.381 650.794C365.661 649.934 366.657 648.712 367.241 647.284C367.825 645.856 367.971 644.286 367.66 642.774C367.349 641.263 366.596 639.878 365.496 638.796C364.395 637.715 362.998 636.985 361.483 636.7C359.967 636.416 358.4 636.589 356.983 637.198C355.566 637.807 354.362 638.824 353.524 640.12ZM360.263 854.041C359.426 855.337 358.993 856.853 359.019 858.396C359.019 859.41 359.221 860.415 359.613 861.351C360.005 862.286 360.58 863.135 361.303 863.846C362.026 864.557 362.884 865.117 363.826 865.493C364.768 865.869 365.775 866.053 366.789 866.036C368.332 866.035 369.839 865.576 371.12 864.716C372.4 863.855 373.396 862.633 373.98 861.205C374.564 859.777 374.71 858.207 374.399 856.695C374.088 855.184 373.335 853.799 372.235 852.718C371.135 851.636 369.738 850.906 368.222 850.622C366.706 850.337 365.139 850.51 363.722 851.119C362.305 851.728 361.101 852.745 360.263 854.041Z" fill="#f5e0bb"/>
<path d="M317.591 801.095C317.591 802.108 317.994 803.08 318.71 803.796C319.426 804.513 320.397 804.915 321.41 804.915C322.422 804.915 323.393 804.513 324.109 803.796C324.825 803.08 325.228 802.108 325.228 801.095V781.995C325.228 780.982 324.826 780.01 324.109 779.294C323.393 778.578 322.422 778.175 321.41 778.175H294.682C293.669 778.175 292.698 778.578 291.982 779.294C291.266 780.01 290.863 780.982 290.863 781.995V810.817L276.889 823.041C276.479 823.401 276.151 823.845 275.927 824.343C275.703 824.84 275.588 825.38 275.59 825.925V848.292L283.227 848.082V827.683L297.202 815.458C297.614 815.096 297.943 814.649 298.167 814.148C298.391 813.647 298.505 813.104 298.5 812.555V785.815H317.591V801.095Z" fill="#f5e0bb"/>
<path d="M412.791 571.39V422.025C412.792 421.025 412.409 420.062 411.719 419.332L383.014 389.027V372.537L395.58 359.92C396.313 359.188 396.727 358.2 396.731 357.169V327.689C396.731 326.646 396.313 325.646 395.569 324.909C394.824 324.172 393.814 323.758 392.761 323.758C391.708 323.758 390.698 324.172 389.954 324.909C389.209 325.646 388.791 326.646 388.791 327.689V355.557L376.225 368.174C375.492 368.907 375.078 369.895 375.074 370.926V390.579C375.072 391.579 375.456 392.542 376.146 393.272L404.85 423.577V571.39C404.85 572.432 405.269 573.432 406.013 574.169C406.758 574.906 407.768 575.32 408.821 575.32C409.874 575.32 410.883 574.906 411.628 574.169C412.373 573.432 412.791 572.432 412.791 571.39Z" fill="#f5e0bb"/>
<path fill-rule="evenodd" clip-rule="evenodd" d="M393.118 297.439C389.935 297.455 386.837 298.479 384.265 300.367C381.693 302.254 379.777 304.909 378.79 307.953H354.479C353.233 307.953 352.039 307.455 351.158 306.569C350.277 305.683 349.782 304.481 349.782 303.228V285.743C352.808 284.739 355.443 282.799 357.311 280.201C359.178 277.602 360.183 274.478 360.183 271.272C360.183 268.065 359.178 264.941 357.311 262.343C355.443 259.744 352.808 257.805 349.782 256.8V245.695C349.782 241.935 348.297 238.329 345.654 235.671C343.011 233.012 339.426 231.518 335.688 231.518H331.603C328.995 231.518 326.88 233.634 326.88 236.244C326.88 238.854 328.995 240.969 331.603 240.969H335.571C336.817 240.969 338.012 241.467 338.893 242.353C339.774 243.24 340.269 244.442 340.269 245.695V256.918C337.242 257.923 334.607 259.862 332.74 262.461C330.872 265.059 329.867 268.184 329.867 271.39C329.867 274.596 330.872 277.721 332.74 280.319C334.607 282.917 337.242 284.857 340.269 285.862V303.11C340.269 306.87 341.753 310.475 344.396 313.134C347.039 315.793 350.624 317.286 354.362 317.286H378.79C379.638 319.974 381.21 322.373 383.332 324.215C385.455 326.058 388.043 327.272 390.811 327.722C393.578 328.173 396.415 327.842 399.007 326.767C401.599 325.692 403.843 323.915 405.49 321.633C407.137 319.351 408.123 316.655 408.337 313.843C408.552 311.031 407.986 308.215 406.704 305.708C405.422 303.2 403.473 301.099 401.074 299.64C398.676 298.18 395.922 297.418 393.118 297.439ZM348.281 266.517C347.335 265.881 346.222 265.542 345.084 265.542C343.558 265.542 342.094 266.152 341.015 267.237C339.935 268.323 339.329 269.795 339.329 271.331C339.329 272.476 339.667 273.595 340.299 274.547C340.931 275.499 341.83 276.241 342.882 276.679C343.933 277.117 345.09 277.232 346.207 277.008C347.323 276.785 348.348 276.233 349.153 275.424C349.958 274.614 350.506 273.583 350.728 272.46C350.95 271.337 350.836 270.173 350.401 269.115C349.965 268.058 349.227 267.154 348.281 266.517ZM389.921 317.374C390.868 318.01 391.98 318.349 393.118 318.349C394.645 318.349 396.108 317.74 397.188 316.654C398.267 315.568 398.873 314.096 398.873 312.561C398.873 311.416 398.536 310.297 397.903 309.345C397.271 308.393 396.372 307.651 395.321 307.213C394.269 306.774 393.112 306.66 391.996 306.883C390.879 307.107 389.854 307.658 389.049 308.467C388.244 309.277 387.696 310.308 387.474 311.431C387.252 312.554 387.366 313.718 387.802 314.776C388.237 315.834 388.975 316.738 389.921 317.374Z" fill="#f5e0bb"/>
<path d="M565.838 -494.579C565.131 -492.821 564.769 -490.939 564.773 -489.038C564.78 -485.229 566.271 -481.577 568.919 -478.887L608.406 -436.266C609.219 -435.448 610.126 -434.733 611.107 -434.135C608.588 -432.566 606.554 -430.306 605.238 -427.613C603.922 -424.921 603.378 -421.905 603.668 -418.912C603.958 -415.919 605.07 -413.07 606.877 -410.691C608.684 -408.312 611.112 -406.5 613.884 -405.463V-358.48C613.82 -357.7 613.916 -356.916 614.165 -356.176C614.415 -355.436 614.812 -354.757 615.332 -354.181C615.852 -353.605 616.484 -353.146 617.187 -352.832C617.891 -352.517 618.65 -352.355 619.418 -352.355C620.186 -352.355 620.946 -352.517 621.649 -352.832C622.353 -353.146 622.984 -353.605 623.504 -354.181C624.025 -354.757 624.422 -355.436 624.671 -356.176C624.92 -356.916 625.016 -357.7 624.953 -358.48V-405.656C627.823 -406.733 630.323 -408.639 632.145 -411.141C633.967 -413.644 635.032 -416.634 635.21 -419.744C635.388 -422.854 634.67 -425.95 633.146 -428.651C631.621 -431.352 629.355 -433.541 626.627 -434.949C627.265 -435.398 627.863 -435.904 628.414 -436.46L667.901 -478.848C669.853 -480.868 671.178 -483.429 671.709 -486.211C672.24 -488.994 671.953 -491.874 670.886 -494.491C669.818 -497.109 668.016 -499.348 665.706 -500.928C663.396 -502.508 660.679 -503.359 657.897 -503.375H624.953V-545.995C624.838 -547.41 624.205 -548.729 623.179 -549.69C622.154 -550.651 620.812 -551.185 619.418 -551.185C618.025 -551.185 616.682 -550.651 615.657 -549.69C614.632 -548.729 613.999 -547.41 613.884 -545.995V-503.375H578.733C575.975 -503.352 573.284 -502.508 570.992 -500.944C568.701 -499.381 566.909 -497.168 565.838 -494.579ZM624.154 -420.69C624.154 -419.73 623.874 -418.793 623.35 -417.995C622.826 -417.198 622.081 -416.577 621.21 -416.212C620.339 -415.846 619.381 -415.753 618.457 -415.943C617.534 -416.133 616.687 -416.598 616.024 -417.279C615.36 -417.96 614.91 -418.827 614.731 -419.769C614.552 -420.711 614.652 -421.686 615.017 -422.57C615.383 -423.455 615.998 -424.208 616.785 -424.736C617.572 -425.263 618.495 -425.541 619.437 -425.533C620.692 -425.523 621.891 -425.008 622.775 -424.101C623.658 -423.194 624.154 -421.968 624.154 -420.69ZM657.897 -492.216C658.509 -492.228 659.111 -492.048 659.621 -491.702C660.131 -491.356 660.525 -490.859 660.75 -490.278C660.906 -489.871 660.983 -489.437 660.978 -489C660.981 -488.593 660.901 -488.191 660.744 -487.818C660.587 -487.444 660.356 -487.108 660.065 -486.83L620.388 -444.441C620.111 -444.14 619.775 -443.902 619.401 -443.742C619.028 -443.582 618.625 -443.503 618.22 -443.512C617.81 -443.507 617.403 -443.587 617.024 -443.747C616.644 -443.907 616.301 -444.143 616.014 -444.441L576.755 -486.83C576.307 -487.263 576.001 -487.827 575.878 -488.444C575.756 -489.061 575.823 -489.702 576.071 -490.278C576.291 -490.862 576.684 -491.362 577.195 -491.709C577.706 -492.056 578.31 -492.233 578.924 -492.216H657.897Z" fill="#f5e0bb"/>
<path fill-rule="evenodd" clip-rule="evenodd" d="M487.702 341.138C481.77 347.063 472.644 347.063 466.712 341.138C462.149 336.581 461.236 329.744 463.974 323.82L428.381 288.271C427.469 287.36 427.012 286.448 427.012 285.081V210.794L377.274 161.118C376.361 160.206 375.905 159.295 375.905 157.928V80.4506C375.905 77.7161 377.73 75.893 380.468 75.893C383.206 75.893 385.031 77.7161 385.031 80.4506V156.56L406.022 177.525V-36.8078C406.022 -36.8078 406.022 -41.3654 410.361 -41.3654C415.465 -41.3654 415.148 -36.8078 415.148 -36.8078V102.326L448.915 136.508C449.828 137.419 450.284 138.33 450.284 139.698V156.56C456.216 158.383 460.323 163.852 460.323 170.689C460.323 178.892 453.479 185.728 445.721 185.728C437.508 185.728 430.663 178.892 430.663 170.689C430.663 164.308 435.226 158.383 441.158 156.56V141.521L415.604 115.087V186.64L468.993 239.962C469.906 240.874 470.362 241.785 470.362 243.152V256.825C476.294 258.648 480.401 264.117 480.401 270.953C480.401 279.156 473.556 285.993 465.343 285.993C457.129 285.993 450.284 279.156 450.284 270.953C450.284 264.572 454.391 258.648 460.78 256.825V244.975L435.682 219.909V283.258L469.906 317.439C475.838 314.249 482.683 315.616 487.246 320.174C493.634 326.098 493.634 335.213 487.702 341.138ZM451.653 170.233C451.653 173.423 449.372 176.158 446.178 176.158C442.983 176.158 440.245 173.423 440.245 170.233C440.245 167.043 442.983 164.308 446.178 164.308C448.915 164.308 451.653 167.043 451.653 170.233ZM471.731 270.953C471.731 274.143 468.993 276.878 465.799 276.878C462.605 276.878 460.323 274.143 459.867 270.953C459.867 267.763 462.605 265.028 465.799 265.028C468.993 265.028 471.731 267.763 471.731 270.953ZM473.1 326.554C475.382 324.275 479.032 324.275 481.314 326.554C483.595 328.833 483.595 332.479 481.314 334.758C479.032 337.036 475.382 337.036 473.1 334.758C470.819 332.479 470.819 328.833 473.1 326.554Z" fill="#f5e0bb"/>
<path d="M443.316 -80.3434C444.229 -79.4319 444.685 -78.5204 444.685 -77.1532V-37.9589C450.617 -36.1359 454.724 -30.6669 454.724 -23.8307C454.724 -15.6272 447.879 -8.79105 439.665 -8.79105C431.452 -8.79105 424.607 -15.6272 424.607 -23.8307C424.607 -30.2112 428.714 -36.1359 435.102 -37.9589V-75.3302L396.772 -113.613V-88.0911L415.481 -69.4054C416.393 -68.4939 416.85 -67.5824 416.85 -66.2152V-7.87956L444.685 15.8193C446.966 14.9078 449.248 13.9963 451.53 13.9963C459.743 13.9963 466.588 20.8326 466.588 29.0361C466.588 37.2395 459.743 43.6199 451.986 43.6199C444.229 43.6199 436.927 37.2395 436.927 28.5803C436.927 26.3015 437.384 24.0228 438.296 22.1998L409.549 -2.41053C408.636 -3.32202 408.18 -4.68933 408.18 -6.05657V-33.4014L384.908 -10.1582V52.2791C390.84 54.1021 395.403 59.5711 395.403 66.4073C394.946 74.155 388.558 80.9912 380.344 80.9912C372.131 80.9912 365.286 74.155 365.286 65.9516C365.286 59.5711 369.393 54.1022 375.325 51.8234V-11.9812C375.325 -13.3485 375.781 -14.26 376.694 -15.1715L407.723 -46.1623V-64.848L392.209 -80.3434L346.577 -34.7686V-8.79105C352.965 -6.96806 357.529 -1.04335 357.529 5.33711C357.529 13.5406 350.684 20.3768 342.47 20.3768C334.256 20.3768 327.412 13.5406 327.412 5.33711C327.412 -1.04335 331.519 -6.51231 337.451 -8.79105V-36.5917C337.451 -37.9589 337.907 -38.8703 338.82 -39.7818L387.645 -88.5468V-215.245C387.645 -217.979 389.471 -219.802 392.209 -219.802C394.946 -219.802 396.772 -217.979 396.772 -215.245V-126.83L443.316 -80.3434ZM440.122 -18.3617C443.316 -18.3617 446.054 -21.0963 446.054 -24.2865C446.054 -27.4767 443.316 -29.7554 440.578 -29.7554C437.384 -29.7554 435.102 -27.021 435.102 -24.2865C434.646 -21.0963 436.927 -18.3617 440.122 -18.3617ZM451.53 34.505C454.724 34.505 457.462 31.7705 457.462 28.5803C457.462 25.39 454.724 23.1113 451.53 23.1113C448.335 23.1113 445.597 25.8458 445.597 29.0361C446.054 31.7705 448.335 34.505 451.53 34.505ZM380.344 71.8762C383.539 71.8762 386.276 69.1418 386.276 65.9516C386.276 62.7613 383.539 60.4826 380.801 60.4826C377.606 60.4826 375.325 62.7613 375.325 65.9516C374.412 69.1418 377.15 71.8762 380.344 71.8762ZM342.47 10.8061C345.664 10.8061 348.402 8.07164 348.402 4.88141C348.402 1.69117 345.664 -1.04333 342.47 -1.04333C339.276 -1.04333 336.538 1.23543 336.538 4.88141C336.994 8.52739 339.276 10.8061 342.47 10.8061Z" fill="#f5e0bb"/>
<path fill-rule="evenodd" clip-rule="evenodd" d="M890.978 -130.246V-20.5139C884.658 -18.5718 879.797 -12.7452 879.797 -5.46208C879.797 3.27767 887.089 10.5608 895.839 10.5608C904.59 10.5608 911.882 2.7921 911.882 -5.94766C911.882 -12.7453 907.507 -19.0573 901.187 -20.9995V-132.674C901.187 -134.131 900.701 -135.102 899.729 -136.073L829.723 -205.991L820 -204.049C820 -202.592 820.487 -201.621 821.459 -200.65L890.978 -130.246ZM889.52 -5.94766C889.52 -2.54887 892.436 0.364399 895.839 0.364399C899.242 0.364399 902.159 -2.54887 901.187 -5.94766C901.187 -8.86092 898.756 -11.7741 895.353 -11.7741C892.436 -11.7741 889.52 -9.34646 889.52 -5.94766Z" fill="#f5e0bb"/>
<path fill-rule="evenodd" clip-rule="evenodd" d="M829.723 -264.742L860.351 -250.661V-227.355C854.031 -225.413 849.169 -219.586 849.169 -212.303C849.169 -203.563 856.462 -196.28 865.212 -196.28C873.963 -196.28 881.255 -203.563 881.255 -212.303C881.255 -219.101 876.88 -225.413 870.56 -227.355V-253.574C870.56 -255.516 869.588 -256.973 867.643 -257.944L829.723 -275.424V-264.742ZM858.892 -212.789C858.892 -209.39 861.809 -206.477 865.212 -206.477C868.129 -206.477 871.046 -209.39 870.56 -212.789C870.56 -215.702 868.129 -218.615 864.726 -218.615C861.809 -218.615 858.892 -216.187 858.892 -212.789Z" fill="#f5e0bb"/>
<path d="M701.203 -751.878C702.375 -750.707 702.961 -749.536 702.961 -747.78V-697.439C710.58 -695.097 715.855 -688.073 715.855 -679.292C715.855 -668.756 707.064 -659.975 696.514 -659.975C685.964 -659.975 677.173 -668.756 677.173 -679.292C677.173 -687.488 682.448 -695.097 690.653 -697.439V-745.439L641.421 -794.61V-761.829L665.451 -737.829C666.623 -736.658 667.209 -735.488 667.209 -733.732V-658.805L702.961 -628.366C705.892 -629.536 708.822 -630.707 711.753 -630.707C722.302 -630.707 731.094 -621.927 731.094 -611.39C731.094 -600.853 722.302 -592.658 712.339 -592.658C702.375 -592.658 692.998 -600.853 692.998 -611.975C692.998 -614.902 693.584 -617.829 694.756 -620.17L657.832 -651.78C656.66 -652.951 656.074 -654.707 656.074 -656.463V-691.585L626.183 -661.731V-581.536C633.802 -579.195 639.663 -572.17 639.663 -563.39C639.077 -553.439 630.871 -544.658 620.322 -544.658C609.772 -544.658 600.981 -553.439 600.981 -563.975C600.981 -572.17 606.255 -579.195 613.875 -582.122V-664.073C613.875 -665.829 614.461 -667 615.633 -668.17L655.487 -707.975V-731.975L635.56 -751.878L576.951 -693.341V-659.975C585.156 -657.634 591.017 -650.024 591.017 -641.829C591.017 -631.292 582.225 -622.512 571.676 -622.512C561.126 -622.512 552.335 -631.292 552.335 -641.829C552.335 -650.024 557.609 -657.049 565.229 -659.975V-695.683C565.229 -697.439 565.815 -698.61 566.987 -699.78L629.699 -762.414V-925.146C629.699 -928.658 632.044 -931 635.56 -931C639.077 -931 641.421 -928.658 641.421 -925.146V-811.585L701.203 -751.878ZM697.1 -672.268C701.203 -672.268 704.719 -675.78 704.719 -679.878C704.719 -683.975 701.203 -686.902 697.686 -686.902C693.584 -686.902 690.653 -683.39 690.653 -679.878C690.067 -675.78 692.998 -672.268 697.1 -672.268ZM711.753 -604.366C715.855 -604.366 719.372 -607.878 719.372 -611.975C719.372 -616.073 715.855 -619 711.753 -619C707.65 -619 704.133 -615.488 704.133 -611.39C704.719 -607.878 707.65 -604.366 711.753 -604.366ZM620.322 -556.366C624.424 -556.366 627.941 -559.878 627.941 -563.975C627.941 -568.073 624.424 -571 620.908 -571C616.805 -571 613.875 -568.073 613.875 -563.975C612.702 -559.878 616.219 -556.366 620.322 -556.366ZM571.676 -634.805C575.778 -634.805 579.295 -638.317 579.295 -642.414C579.295 -646.512 575.778 -650.024 571.676 -650.024C567.573 -650.024 564.056 -647.097 564.056 -642.414C564.643 -637.731 567.573 -634.805 571.676 -634.805Z" fill="#f5e0bb"/>
<path d="M523.616 -720.268V-587.975C531.235 -585.634 537.096 -578.61 537.096 -569.829C537.096 -559.292 528.305 -550.512 517.755 -550.512C507.206 -550.512 498.414 -559.878 498.414 -570.414C498.414 -578.61 503.689 -586.219 511.308 -588.561V-723.195C511.308 -724.951 511.894 -726.122 513.066 -727.293L597.464 -811.585V-882.415L560.54 -865.439V-837.341C568.159 -835 574.02 -827.976 574.02 -819.195C574.02 -808.658 565.229 -799.878 554.679 -799.878C544.13 -799.878 535.338 -808.658 535.338 -819.195C535.338 -827.39 540.613 -835 548.232 -837.341V-868.951C548.232 -871.293 549.404 -873.049 551.749 -874.219L597.464 -895.293V-925.146C597.464 -928.659 599.809 -931 603.325 -931C606.842 -931 609.186 -928.659 609.186 -925.146V-809.244C609.186 -807.488 608.6 -806.317 607.428 -805.146L523.616 -720.268ZM517.755 -562.805C521.858 -562.805 525.374 -566.317 525.374 -570.414C525.374 -574.512 521.858 -577.439 518.341 -577.439C514.239 -577.439 511.308 -573.927 511.308 -570.414C510.136 -566.317 513.653 -562.805 517.755 -562.805ZM554.679 -812.171C558.782 -812.171 562.299 -815.683 562.299 -819.78C562.299 -823.878 558.782 -826.805 555.265 -826.805C551.163 -826.805 548.232 -823.293 548.232 -819.78C547.646 -815.683 551.163 -812.171 554.679 -812.171Z" fill="#f5e0bb"/>
<path fill-rule="evenodd" clip-rule="evenodd" d="M378.996 -215.6C386.615 -207.99 398.337 -207.99 405.956 -215.6C411.817 -221.453 412.989 -230.234 409.473 -237.844L455.188 -283.502C456.36 -284.673 456.947 -285.844 456.947 -287.6V-383.014L520.831 -446.819C522.003 -447.99 522.589 -449.161 522.589 -450.917V-550.429C522.589 -553.941 520.245 -556.283 516.728 -556.283C513.212 -556.283 510.867 -553.941 510.867 -550.429V-452.673L483.907 -425.746L471.599 -414.039L403.026 -345.551C401.854 -344.38 401.267 -343.209 401.267 -341.453V-323.892C393.648 -321.551 388.373 -314.527 388.373 -305.746C388.373 -295.209 397.165 -286.429 407.715 -286.429C418.264 -286.429 427.056 -295.209 427.056 -305.746C427.056 -313.941 421.781 -321.551 413.575 -323.892V-339.112L445.811 -371.307V-289.941L401.854 -246.039C394.234 -250.136 385.443 -248.38 379.582 -242.526C371.377 -234.917 371.377 -223.209 378.996 -215.6ZM399.509 -305.746C399.509 -301.648 403.026 -298.136 407.128 -298.136C411.231 -298.136 414.162 -301.648 414.748 -305.746C414.748 -309.844 411.231 -313.356 407.128 -313.356C403.026 -313.356 399.509 -309.844 399.509 -305.746ZM397.751 -234.331C394.82 -237.258 390.132 -237.258 387.201 -234.331C384.271 -231.405 384.271 -226.722 387.201 -223.795C390.132 -220.868 394.82 -220.868 397.751 -223.795C400.681 -226.722 400.681 -231.405 397.751 -234.331Z" fill="#f5e0bb"/>
<path d="M733.458 202.216C732.898 201.657 732.14 201.342 731.347 201.342H666.242C665.449 201.342 664.691 201.657 664.132 202.216L645.316 221.012C644.757 221.571 644.442 222.327 644.442 223.119V280.446C644.442 281.238 644.757 281.995 645.316 282.554L664.132 301.349C664.691 301.908 665.449 302.223 666.242 302.223H731.347C732.14 302.223 732.898 301.908 733.458 301.349L752.277 282.554C752.837 281.995 753.151 281.238 753.151 280.446V223.119C753.151 222.327 752.837 221.57 752.277 221.012L733.458 202.216ZM747.181 279.211L730.111 296.26H667.478L650.412 279.211V224.354L667.478 207.305H730.111L747.181 224.354V279.211Z" fill="#f5e0bb"/>
<path d="M791.884 237.164C793.297 245.003 800.142 250.979 808.392 250.979C817.635 250.979 825.156 243.448 825.156 234.19C825.156 224.936 817.635 217.405 808.392 217.405C800.148 217.405 793.305 223.373 791.885 231.201H773.047V215.794H788.625C790.273 215.794 791.61 214.459 791.61 212.813C791.61 211.167 790.273 209.832 788.625 209.832H770.062C769.816 209.832 769.596 209.916 769.367 209.972L741.701 182.341C741.142 181.782 740.384 181.467 739.591 181.467H733.882V165.909C733.882 164.263 732.544 162.928 730.897 162.928C729.249 162.928 727.912 164.263 727.912 165.909V181.467H712.493V162.653C720.33 161.233 726.303 154.399 726.303 146.166C726.303 136.935 718.762 129.424 709.497 129.424C700.227 129.424 692.687 136.935 692.687 146.166C692.687 154.408 698.672 161.245 706.523 162.655V181.467H691.078V165.909C691.078 164.263 689.741 162.928 688.093 162.928C686.445 162.928 685.108 164.263 685.108 165.909V181.467H669.67V162.654C677.517 161.241 683.499 154.405 683.499 146.166C683.499 136.935 675.959 129.424 666.689 129.424C657.423 129.424 649.883 136.935 649.883 146.166C649.883 154.402 655.86 161.236 663.7 162.653V181.467H657.999C657.206 181.467 656.448 181.782 655.888 182.341L628.219 209.972C627.989 209.916 627.77 209.832 627.523 209.832H608.965C607.317 209.832 605.98 211.167 605.98 212.813C605.98 214.459 607.317 215.794 608.965 215.794H624.538V231.201H605.7C604.28 223.373 597.438 217.405 589.197 217.405C579.951 217.405 572.43 224.936 572.43 234.19C572.43 243.448 579.951 250.979 589.197 250.979C597.444 250.979 604.288 245.003 605.702 237.164H624.538V252.586H608.964C607.317 252.586 605.98 253.921 605.98 255.567C605.98 257.213 607.317 258.549 608.964 258.549H624.538V273.975H605.703C604.292 266.135 597.446 260.156 589.197 260.156C579.951 260.156 572.43 267.686 572.43 276.941C572.43 286.199 579.951 293.729 589.197 293.729C597.436 293.729 604.277 287.765 605.699 279.937H624.538V288.679C624.538 289.471 624.853 290.228 625.413 290.787L655.888 321.22C656.448 321.779 657.206 322.094 657.998 322.094H663.7V340.912C655.86 342.329 649.883 349.163 649.883 357.395C649.883 366.626 657.423 374.137 666.689 374.137C675.959 374.137 683.499 366.626 683.499 357.395C683.499 349.16 677.517 342.324 669.67 340.911V322.094H685.108V337.652C685.108 339.298 686.445 340.633 688.093 340.633C689.741 340.633 691.078 339.298 691.078 337.652V322.094H706.523V340.91C698.672 342.321 692.687 349.157 692.687 357.395C692.687 366.626 700.227 374.137 709.497 374.137C718.762 374.137 726.302 366.626 726.302 357.395C726.302 349.166 720.33 342.332 712.493 340.913V322.094H727.912V337.652C727.912 339.298 729.249 340.633 730.896 340.633C732.544 340.633 733.881 339.298 733.881 337.652V322.094H739.591C740.384 322.094 741.142 321.779 741.701 321.22L772.173 290.787C772.732 290.228 773.047 289.471 773.047 288.679V279.937H791.886C793.309 287.765 800.15 293.729 808.392 293.729C817.635 293.729 825.156 286.199 825.156 276.941C825.156 267.686 817.635 260.156 808.392 260.156C800.14 260.156 793.294 266.135 791.883 273.975H773.047V258.549H788.625C790.273 258.549 791.61 257.213 791.61 255.567C791.61 253.921 790.273 252.586 788.625 252.586H773.047V237.164L791.884 237.164ZM808.392 223.368C814.343 223.368 819.186 228.224 819.186 234.19C819.186 240.16 814.343 245.017 808.392 245.017C802.415 245.017 797.553 240.16 797.553 234.19C797.553 228.224 802.415 223.368 808.392 223.368ZM698.657 146.166C698.657 140.223 703.519 135.387 709.497 135.387C715.47 135.387 720.333 140.223 720.333 146.166C720.333 152.129 715.482 156.979 709.517 156.99L709.508 156.989C709.502 156.989 709.497 156.992 709.491 156.992C703.516 156.989 698.657 152.135 698.657 146.166ZM655.853 146.166C655.853 140.223 660.715 135.387 666.689 135.387C672.667 135.387 677.529 140.223 677.529 146.166C677.529 152.133 672.673 156.986 666.699 156.992C666.694 156.992 666.69 156.989 666.685 156.989L666.674 156.991C660.707 156.982 655.853 152.131 655.853 146.166ZM589.197 245.017C583.243 245.017 578.4 240.16 578.4 234.19C578.4 228.224 583.243 223.368 589.197 223.368C595.156 223.368 600.004 228.201 600.029 234.147C600.028 234.159 600.021 234.17 600.021 234.182C600.021 234.197 600.029 234.209 600.03 234.223C600.011 240.178 595.159 245.017 589.197 245.017ZM589.197 287.767C583.243 287.767 578.4 282.911 578.4 276.941C578.4 270.974 583.243 266.118 589.197 266.118C595.161 266.118 600.015 270.96 600.03 276.912C600.03 276.928 600.021 276.941 600.021 276.956C600.021 276.968 600.028 276.978 600.028 276.989C600.001 282.937 595.154 287.767 589.197 287.767ZM677.529 357.395C677.529 363.338 672.667 368.175 666.689 368.175C660.715 368.175 655.853 363.338 655.853 357.395C655.853 351.429 660.715 346.573 666.689 346.573C672.667 346.573 677.529 351.429 677.529 357.395ZM720.333 357.395C720.333 363.338 715.47 368.175 709.497 368.175C703.519 368.175 698.657 363.338 698.657 357.395C698.657 351.429 703.519 346.573 709.497 346.573C715.47 346.573 720.333 351.429 720.333 357.395ZM808.392 266.118C814.343 266.118 819.186 270.974 819.186 276.941C819.186 282.911 814.343 287.767 808.392 287.767C802.415 287.767 797.553 282.911 797.553 276.941C797.553 270.974 802.415 266.118 808.392 266.118ZM738.355 316.131H659.234L630.508 287.445V216.117L659.234 187.43C676.303 187.43 709.218 187.43 738.355 187.43L767.077 216.117V234.086C767.076 234.12 767.058 234.148 767.058 234.182C767.058 234.216 767.076 234.245 767.077 234.279V276.86C767.076 276.894 767.058 276.922 767.058 276.956C767.058 276.99 767.076 277.018 767.077 277.052V287.445L738.355 316.131Z" fill="#f5e0bb"/>
<path d="M643.546 -255.767H594.985C592.226 -255.767 590.018 -253.562 590.018 -250.806V-202.581C590.018 -199.825 592.226 -197.621 594.985 -197.621H643.27C646.03 -197.621 648.237 -199.825 648.237 -202.581V-250.806C648.513 -253.562 646.305 -255.767 643.546 -255.767ZM638.58 -207.266H599.951V-245.846H638.58V-207.266Z" fill="#f5e0bb"/>
<path d="M713.905 -221.596C716.112 -213.88 723.286 -208.093 731.84 -208.093C742.049 -208.093 750.326 -216.36 750.326 -226.556C750.326 -236.752 742.049 -245.019 731.84 -245.019C723.286 -245.019 716.112 -239.232 713.905 -231.516H675.553V-250.531H692.659C694.867 -250.531 696.798 -251.909 697.35 -254.113L702.041 -271.199H713.629C715.836 -263.483 723.01 -257.696 731.564 -257.696C741.773 -257.696 750.05 -265.963 750.05 -276.159C750.05 -286.355 741.773 -294.623 731.564 -294.623C723.01 -294.623 715.836 -288.836 713.629 -281.119H698.178C695.97 -281.119 694.039 -279.742 693.487 -277.537L688.797 -260.451H675.553V-268.167C675.553 -276.159 668.931 -282.773 660.929 -282.773H653.203V-296L670.31 -300.685C672.517 -301.236 673.897 -303.165 673.897 -305.37V-320.802C681.623 -323.007 687.417 -330.172 687.417 -338.714C687.417 -348.911 679.139 -357.178 668.931 -357.178C658.722 -357.178 650.444 -348.911 650.444 -338.714C650.444 -330.172 656.238 -323.007 663.964 -320.802V-309.228L646.857 -304.819C644.65 -304.268 643.27 -302.339 643.27 -300.134V-283.048H624.232V-321.078C631.958 -323.282 637.752 -330.447 637.752 -338.99C637.752 -349.186 629.474 -357.453 619.266 -357.453C609.057 -357.453 600.779 -349.186 600.779 -338.99C600.779 -330.447 606.573 -323.282 614.299 -321.078V-282.773H595.261V-299.858C595.261 -302.063 593.881 -303.992 591.674 -304.543L574.567 -309.228V-320.802C582.293 -323.007 588.087 -330.172 588.087 -338.714C588.087 -348.911 579.809 -357.178 569.6 -357.178C559.392 -357.178 551.114 -348.911 551.114 -338.714C551.114 -330.172 556.908 -323.007 564.634 -320.802V-305.37C564.634 -303.165 566.014 -301.236 568.221 -300.685L585.328 -296V-282.773H577.602C569.6 -282.773 562.978 -276.159 562.978 -268.167V-260.451H549.734L544.768 -277.537C544.216 -279.742 542.285 -281.119 540.077 -281.119H524.626C522.419 -288.836 515.245 -294.623 506.691 -294.623C496.482 -294.623 488.205 -286.355 488.205 -276.159C488.205 -265.963 496.482 -257.696 506.691 -257.696C515.245 -257.696 522.419 -263.483 524.626 -271.199H536.214L540.905 -254.113C541.457 -251.909 543.388 -250.531 545.596 -250.531H562.703V-231.516H524.626C522.419 -239.232 515.245 -245.019 506.691 -245.019C496.482 -245.019 488.205 -236.752 488.205 -226.556C488.205 -216.36 496.482 -208.093 506.691 -208.093C515.245 -208.093 522.419 -213.88 524.626 -221.596H562.978V-202.581H545.872C543.664 -202.581 541.733 -201.203 541.181 -198.999L536.49 -181.913H524.902C522.695 -189.629 515.521 -195.416 506.967 -195.416C496.758 -195.416 488.481 -187.149 488.481 -176.953C488.481 -166.756 496.758 -158.489 506.967 -158.489C515.521 -158.489 522.695 -164.276 524.902 -171.992H540.353C542.561 -171.992 544.492 -173.37 545.044 -175.575L549.734 -192.66H562.978V-184.944C562.978 -176.953 569.6 -170.339 577.602 -170.339H585.328V-157.111L568.221 -152.151C566.014 -151.6 564.634 -149.671 564.634 -147.466V-132.034C556.908 -129.83 551.114 -122.665 551.114 -114.122C551.114 -103.926 559.392 -95.6585 569.6 -95.6585C579.809 -95.6585 588.087 -103.926 588.087 -114.122C588.087 -122.665 582.293 -129.83 574.567 -132.034V-143.608L591.674 -148.293C593.881 -148.844 595.261 -150.773 595.261 -152.978V-170.063H614.299V-131.759C606.573 -129.554 600.779 -122.389 600.779 -113.846C600.779 -103.65 609.057 -95.3829 619.266 -95.3829C629.474 -95.3829 637.752 -103.65 637.752 -113.846C637.752 -122.389 631.958 -129.554 624.232 -131.759V-170.339H643.27V-153.253C643.27 -151.049 644.65 -149.12 646.857 -148.569L663.964 -143.884V-132.31C656.238 -130.105 650.444 -122.94 650.444 -114.398C650.444 -104.201 658.722 -95.9341 668.931 -95.9341C679.139 -95.9341 687.417 -104.201 687.417 -114.398C687.417 -122.94 681.623 -130.105 673.897 -132.31V-147.742C673.897 -149.946 672.517 -151.875 670.31 -152.427L653.203 -157.111V-170.339H660.929C668.931 -170.339 675.553 -176.953 675.553 -184.944V-192.66H688.797L693.487 -175.575C694.039 -173.37 695.97 -171.992 698.178 -171.992H713.629C715.836 -164.276 723.01 -158.489 731.564 -158.489C741.773 -158.489 750.05 -166.756 750.05 -176.953C750.05 -187.149 741.773 -195.416 731.564 -195.416C723.01 -195.416 715.836 -189.629 713.629 -181.913H702.041L697.626 -198.999C697.074 -201.203 695.143 -202.581 692.935 -202.581H675.828V-221.596H713.905ZM731.84 -235.099C736.53 -235.099 740.669 -231.241 740.669 -226.28C740.669 -221.596 736.806 -217.738 731.84 -217.738C727.149 -217.738 723.01 -221.596 723.01 -226.28C723.01 -231.241 726.873 -235.099 731.84 -235.099ZM731.84 -284.977C736.53 -284.977 740.669 -281.119 740.669 -276.159C740.669 -271.199 736.806 -267.616 731.84 -267.616C727.149 -267.616 723.01 -271.474 723.01 -276.159C723.01 -280.844 726.873 -284.977 731.84 -284.977ZM660.377 -338.99C660.377 -343.675 664.24 -347.808 669.206 -347.808C673.897 -347.808 678.036 -343.95 678.036 -338.99C678.036 -334.03 674.173 -330.172 669.206 -330.172C664.24 -330.172 660.377 -334.03 660.377 -338.99ZM610.712 -338.99C610.712 -343.675 614.575 -347.808 619.541 -347.808C624.232 -347.808 628.371 -343.95 628.371 -338.99C628.371 -334.03 624.508 -330.172 619.541 -330.172C614.575 -330.172 610.712 -334.03 610.712 -338.99ZM560.771 -338.99C560.771 -343.675 564.634 -347.808 569.6 -347.808C574.567 -347.808 578.43 -343.95 578.43 -338.99C578.43 -334.03 574.567 -330.172 569.6 -330.172C564.634 -330.172 560.771 -334.03 560.771 -338.99ZM506.691 -267.616C502.001 -267.616 497.862 -271.474 497.862 -276.159C497.862 -280.844 501.725 -284.977 506.691 -284.977C511.658 -284.977 515.521 -281.119 515.521 -276.159C515.521 -271.199 511.658 -267.616 506.691 -267.616ZM506.691 -218.013C502.001 -218.013 497.862 -221.871 497.862 -226.831C497.862 -231.516 501.725 -235.374 506.691 -235.374C511.658 -235.374 515.521 -231.516 515.521 -226.831C515.521 -221.871 511.658 -218.013 506.691 -218.013ZM506.691 -168.134C502.001 -168.134 497.862 -171.992 497.862 -176.953C497.862 -181.637 501.725 -185.495 506.691 -185.495C511.658 -185.495 515.521 -181.637 515.521 -176.953C515.521 -171.992 511.658 -168.134 506.691 -168.134ZM578.154 -114.122C578.154 -109.437 574.291 -105.304 569.325 -105.304C564.358 -105.304 560.495 -109.162 560.495 -114.122C560.495 -119.082 564.358 -122.94 569.325 -122.94C574.291 -122.94 578.154 -119.082 578.154 -114.122ZM628.095 -114.122C628.095 -109.437 624.232 -105.304 619.266 -105.304C614.575 -105.304 610.436 -109.162 610.436 -114.122C610.436 -119.082 614.299 -122.94 619.266 -122.94C623.956 -122.94 628.095 -119.082 628.095 -114.122ZM677.76 -114.122C677.76 -109.437 673.897 -105.304 668.931 -105.304C664.24 -105.304 660.101 -109.162 660.101 -114.122C660.101 -119.082 663.964 -122.94 668.931 -122.94C673.897 -122.94 677.76 -119.082 677.76 -114.122ZM731.84 -185.495C736.53 -185.495 740.669 -181.637 740.669 -176.953C740.669 -172.268 736.806 -168.134 731.84 -168.134C727.149 -168.134 723.01 -171.992 723.01 -176.953C723.01 -181.637 726.873 -185.495 731.84 -185.495ZM665.62 -184.944C665.62 -182.189 663.412 -180.26 660.929 -180.26H577.602C574.843 -180.26 572.911 -182.464 572.911 -184.944V-268.167C572.911 -270.923 575.119 -272.852 577.602 -272.852H660.929C663.688 -272.852 665.62 -270.648 665.62 -268.167V-184.944Z" fill="#f5e0bb"/>
<path fill-rule="evenodd" clip-rule="evenodd" d="M792.921 144.801C792.91 140.759 791.581 136.832 789.135 133.613C786.688 130.394 783.258 128.06 779.364 126.964V105.318C779.358 104.088 778.865 102.91 777.992 102.043L746.808 70.8751V30.9977C746.808 29.7657 746.318 28.5842 745.446 27.7131C744.573 26.842 743.391 26.3526 742.157 26.3526H697.974L697.974 -17.775H760.76V56.5453C760.759 57.1805 760.889 57.8091 761.141 58.3924C761.393 58.9756 761.762 59.5009 762.225 59.9361L796.851 92.4512C797.512 93.0726 798.342 93.4868 799.236 93.6429C800.131 93.7989 801.052 93.6899 801.885 93.3293C802.719 92.9687 803.428 92.3723 803.926 91.6137C804.424 90.8551 804.688 89.9675 804.687 89.0604V-11.9223C804.688 -12.5408 804.565 -13.1532 804.325 -13.7235C804.085 -14.2938 803.734 -14.8106 803.292 -15.2435L770.062 -47.5961V-97.2048C774.205 -98.1047 777.917 -100.391 780.581 -103.686C783.245 -106.981 784.703 -111.085 784.712 -115.32C784.745 -118.811 783.801 -122.242 781.986 -125.226C780.171 -128.21 777.558 -130.628 774.441 -132.209C771.324 -133.789 767.827 -134.468 764.345 -134.17C760.862 -133.872 757.532 -132.609 754.729 -130.522C751.927 -128.435 749.764 -125.608 748.484 -122.359C747.204 -119.11 746.858 -115.569 747.485 -112.134C748.112 -108.7 749.687 -105.508 752.033 -102.92C754.378 -100.331 757.401 -98.4484 760.76 -97.4835V-45.6451C760.76 -45.0266 760.883 -44.4143 761.122 -43.844C761.362 -43.2737 761.713 -42.7569 762.156 -42.3239L795.386 -9.97139L795.386 78.2839L770.062 54.5479V-22.4201C770.062 -23.652 769.572 -24.8334 768.7 -25.7046C767.828 -26.5757 766.645 -27.0651 765.411 -27.0651H693.324C692.09 -27.0651 690.907 -26.5757 690.035 -25.7046C689.163 -24.8334 688.673 -23.652 688.673 -22.4201L688.673 26.3526H663.093C661.86 26.3526 660.677 26.842 659.805 27.7131C658.933 28.5842 658.443 29.7657 658.443 30.9977V75.3808L644.49 87.9223V-6.6502L673.488 -37.8415C674.282 -38.7018 674.723 -39.8298 674.72 -41.0001V-97.4835L665.419 -97.2049V-42.835L636.421 -11.6436C635.626 -10.7834 635.186 -9.65536 635.188 -8.48501V98.3504C635.186 99.2499 635.445 100.131 635.935 100.886C636.424 101.641 637.122 102.238 637.945 102.605C638.767 102.971 639.678 103.091 640.568 102.95C641.457 102.809 642.287 102.414 642.955 101.811L666.209 80.9083C666.694 80.4714 667.081 79.9375 667.346 79.3413C667.61 78.745 667.746 78.0999 667.744 77.4478V35.6426H737.506V72.8027C737.511 74.0327 738.005 75.2105 738.878 76.0776L770.062 107.246V126.685C766.659 127.484 763.55 129.224 761.092 131.706C758.634 134.187 756.925 137.311 756.162 140.718C755.4 144.125 755.613 147.678 756.779 150.969C757.945 154.26 760.016 157.157 762.754 159.327C765.492 161.497 768.787 162.853 772.261 163.239C775.735 163.624 779.248 163.025 782.397 161.509C785.545 159.993 788.203 157.621 790.064 154.666C791.925 151.711 792.915 148.292 792.921 144.801ZM758.02 -120.616C757 -119.04 756.472 -117.197 756.505 -115.32C756.505 -114.087 756.751 -112.865 757.228 -111.727C757.706 -110.589 758.405 -109.558 759.286 -108.693C760.168 -107.828 761.212 -107.148 762.36 -106.69C763.507 -106.233 764.734 -106.009 765.969 -106.03C767.848 -106.031 769.684 -106.589 771.244 -107.635C772.804 -108.681 774.016 -110.167 774.728 -111.904C775.439 -113.641 775.617 -115.55 775.238 -117.388C774.859 -119.226 773.942 -120.909 772.602 -122.225C771.262 -123.54 769.56 -124.427 767.714 -124.773C765.867 -125.12 763.959 -124.909 762.233 -124.169C760.507 -123.428 759.04 -122.191 758.02 -120.616ZM766.229 139.505C765.209 141.081 764.681 142.924 764.713 144.801C764.713 146.034 764.959 147.256 765.437 148.394C765.914 149.531 766.614 150.563 767.495 151.428C768.376 152.293 769.421 152.973 770.568 153.431C771.716 153.888 772.943 154.112 774.178 154.091C776.057 154.09 777.893 153.532 779.452 152.486C781.012 151.44 782.225 149.954 782.936 148.217C783.648 146.48 783.825 144.571 783.447 142.733C783.068 140.895 782.15 139.212 780.81 137.896C779.471 136.581 777.769 135.694 775.922 135.348C774.076 135.001 772.168 135.212 770.442 135.952C768.715 136.693 767.249 137.93 766.229 139.505Z" fill="#f5e0bb"/>
<path d="M714.252 75.1252C714.252 76.3571 714.742 77.5386 715.614 78.4097C716.487 79.2808 717.67 79.7702 718.903 79.7702C720.137 79.7702 721.319 79.2808 722.192 78.4097C723.064 77.5386 723.554 76.3571 723.554 75.1252V51.9001C723.554 50.6682 723.064 49.4867 722.192 48.6156C721.319 47.7445 720.137 47.2551 718.903 47.2551H686.347C685.114 47.2551 683.931 47.7445 683.059 48.6156C682.187 49.4867 681.697 50.6682 681.697 51.9001V86.9468L664.675 101.811C664.176 102.249 663.776 102.788 663.503 103.393C663.231 103.998 663.091 104.654 663.093 105.318V132.515L672.395 132.259V107.455L689.417 92.5904C689.919 92.15 690.32 91.6067 690.593 90.9975C690.866 90.3883 691.004 89.7276 690.998 89.0602V56.5451H714.252V75.1252Z" fill="#f5e0bb"/>
<path d="M830.21 -204.189V-385.812C830.211 -387.028 829.745 -388.199 828.904 -389.086L793.94 -425.936V-445.987L809.246 -461.329C810.139 -462.219 810.643 -463.421 810.648 -464.675V-500.521C810.648 -501.789 810.139 -503.005 809.232 -503.901C808.325 -504.797 807.095 -505.301 805.813 -505.301C804.53 -505.301 803.3 -504.797 802.393 -503.901C801.486 -503.005 800.977 -501.789 800.977 -500.521V-466.634L785.671 -451.292C784.778 -450.402 784.274 -449.2 784.269 -447.946V-424.048C784.267 -422.833 784.734 -421.662 785.574 -420.774L820.538 -383.924V-204.189C820.538 -202.921 821.047 -201.706 821.954 -200.809C822.861 -199.913 824.091 -199.409 825.374 -199.409C826.656 -199.409 827.886 -199.913 828.793 -200.809C829.7 -201.706 830.21 -202.921 830.21 -204.189Z" fill="#f5e0bb"/>
<path fill-rule="evenodd" clip-rule="evenodd" d="M806.248 -537.304C802.37 -537.284 798.597 -536.039 795.464 -533.744C792.331 -531.449 789.998 -528.221 788.795 -524.519H759.184C757.666 -524.519 756.211 -525.124 755.137 -526.202C754.064 -527.279 753.461 -528.741 753.461 -530.265V-551.525C757.148 -552.747 760.357 -555.106 762.632 -558.265C764.907 -561.424 766.131 -565.224 766.131 -569.122C766.131 -573.021 764.907 -576.821 762.632 -579.98C760.357 -583.139 757.148 -585.498 753.461 -586.72V-600.223C753.461 -604.795 751.653 -609.179 748.434 -612.412C745.214 -615.645 740.848 -617.461 736.295 -617.461H731.32C728.142 -617.461 725.566 -614.889 725.566 -611.715C725.566 -608.542 728.142 -605.969 731.32 -605.969H736.152C737.67 -605.969 739.125 -605.364 740.198 -604.286C741.271 -603.208 741.874 -601.747 741.874 -600.223V-586.576C738.188 -585.354 734.978 -582.996 732.704 -579.836C730.429 -576.677 729.204 -572.877 729.204 -568.979C729.204 -565.08 730.429 -561.281 732.704 -558.121C734.978 -554.962 738.188 -552.603 741.874 -551.382V-530.408C741.874 -525.837 743.683 -521.452 746.902 -518.219C750.121 -514.986 754.488 -513.17 759.041 -513.17H788.795C789.828 -509.902 791.743 -506.985 794.328 -504.745C796.913 -502.504 800.066 -501.028 803.437 -500.48C806.808 -499.932 810.264 -500.334 813.42 -501.642C816.577 -502.949 819.311 -505.11 821.317 -507.884C823.324 -510.659 824.524 -513.938 824.785 -517.357C825.046 -520.776 824.357 -524.2 822.795 -527.25C821.233 -530.299 818.86 -532.853 815.938 -534.628C813.017 -536.403 809.662 -537.329 806.248 -537.304ZM751.634 -574.903C750.481 -575.677 749.126 -576.09 747.739 -576.09C745.88 -576.09 744.097 -575.348 742.783 -574.028C741.468 -572.708 740.73 -570.917 740.73 -569.051C740.73 -567.658 741.141 -566.298 741.911 -565.14C742.681 -563.982 743.776 -563.08 745.057 -562.548C746.338 -562.015 747.747 -561.875 749.107 -562.147C750.467 -562.419 751.716 -563.089 752.696 -564.073C753.676 -565.058 754.344 -566.312 754.614 -567.677C754.885 -569.043 754.746 -570.458 754.215 -571.744C753.685 -573.031 752.786 -574.13 751.634 -574.903ZM802.353 -513.064C803.506 -512.29 804.861 -511.877 806.248 -511.877C808.107 -511.877 809.89 -512.619 811.204 -513.939C812.519 -515.259 813.257 -517.05 813.257 -518.916C813.257 -520.309 812.846 -521.669 812.076 -522.827C811.306 -523.985 810.211 -524.887 808.93 -525.419C807.649 -525.952 806.24 -526.092 804.88 -525.82C803.52 -525.548 802.271 -524.878 801.291 -523.894C800.311 -522.909 799.643 -521.655 799.373 -520.29C799.102 -518.924 799.241 -517.509 799.772 -516.223C800.302 -514.936 801.201 -513.837 802.353 -513.064Z" fill="#f5e0bb"/>
</g>
</svg>
