<?xml version="1.0" encoding="UTF-8" standalone="no"?>
<!DOCTYPE svg PUBLIC "-//W3C//DTD SVG 1.1//EN" "http://www.w3.org/Graphics/SVG/1.1/DTD/svg11.dtd">
<svg width="100%" height="100%" viewBox="0 0 2048 2048" version="1.1" xmlns="http://www.w3.org/2000/svg" xmlns:xlink="http://www.w3.org/1999/xlink" xml:space="preserve" xmlns:serif="http://www.serif.com/" style="fill-rule:evenodd;clip-rule:evenodd;stroke-linejoin:round;stroke-miterlimit:2;">
    <g transform="matrix(1.46062,0,0,1.45991,-548.619,-466.452)">
        <ellipse cx="1084.32" cy="1013.93" rx="582.378" ry="582.703" style="fill:rgb(165,69,45);"/>
    </g>
    <g transform="matrix(1.18235,0,0,1.18007,-183.878,-216.469)">
        <g transform="matrix(0.807248,0.00573045,-0.00569504,0.80226,-148.796,133.672)">
            <path d="M1436.51,476.333C1439.25,476.333 1441.48,478.579 1441.48,481.346C1441.48,484.113 1439.25,486.359 1436.51,486.359C1433.78,486.359 1431.55,484.113 1431.55,481.346C1431.55,478.579 1433.78,476.333 1436.51,476.333ZM1436.51,478.84C1437.88,478.84 1439,479.963 1439,481.346C1439,482.73 1437.88,483.853 1436.51,483.853C1435.14,483.853 1434.03,482.73 1434.03,481.346C1434.03,479.963 1435.14,478.84 1436.51,478.84Z" style="fill:rgb(165,69,45);"/>
            <path d="M1436.51,460.232C1424.97,460.232 1415.58,469.682 1415.58,481.346C1415.58,493.01 1424.97,502.461 1436.52,502.461C1448.06,502.461 1457.45,493.01 1457.45,481.347C1457.45,469.683 1448.06,460.232 1436.51,460.232ZM1436.52,492.434C1430.45,492.434 1425.5,487.476 1425.5,481.346C1425.5,475.216 1430.45,470.258 1436.51,470.258C1442.58,470.258 1447.52,475.216 1447.52,481.347C1447.52,487.476 1442.58,492.434 1436.52,492.434Z"/>
        </g>
        <g id="Layer2">
            <path d="M1334.1,1298.5L1334.12,1300.25C1334.33,1325.78 1334.39,1443.73 1334.48,1467.03C1334.48,1469.54 1334.5,1471.04 1334.51,1471.3C1334.59,1473.57 1335.25,1474.71 1335.34,1474.9C1337.02,1478.67 1339.8,1479.74 1341.49,1480.2C1343.88,1480.88 1346.3,1480.68 1348.7,1479.34L1339.39,1462.65C1339.57,1462.55 1353.58,1470.64 1353.58,1470.64C1353.58,1470.64 1353.56,1468.52 1353.55,1466.06C1353.47,1440.44 1353.41,1322.41 1353.19,1299.18C1353.17,1296.32 1353.1,1294.64 1353.07,1294.34C1352.77,1291.38 1351.54,1289.51 1350.31,1288.35L1349.95,1287.84C1342.85,1277.76 1311.06,1230.86 1304.79,1221.58L1304.8,1218.34C1304.92,1183.22 1305.72,1008.03 1305.72,1008.03L1305.76,998.426L729.317,998.603C729.338,946.609 729.44,698.339 729.54,644.165C729.551,638.188 729.572,633.959 729.572,633.959C729.572,633.959 729.417,635.433 729.401,635.515C728.189,641.768 723.352,642.741 722.14,643.015C719.271,643.665 716.138,643.322 713.269,640.43L726.803,626.953C726.605,626.753 710.692,621.716 710.493,633.64C710.482,634.306 710.47,637.987 710.458,644.129C710.347,704.727 710.232,1008.16 710.232,1008.16L710.228,1017.73L1286.59,1017.55C1286.42,1054.66 1285.82,1188.11 1285.72,1218.27C1285.7,1221.85 1285.7,1224 1285.7,1224.4C1285.73,1227.33 1286.74,1228.72 1286.78,1228.8C1286.83,1228.89 1325.45,1286.16 1334.1,1298.5Z"/>
            <path d="M722.859,640.519L787.922,682.589L914.487,682.928L986.308,634.427C986.308,634.427 1177.95,633.974 1177.95,633.974L1302.44,535.866L1296.39,518.332L1021.55,518.155L1021.54,537.79C1021.54,537.79 1197.95,537.904 1268.1,537.949C1268.1,537.949 1171.15,614.355 1171.15,614.355C1171.15,614.355 980.299,614.806 980.299,614.806L908.523,663.277C908.523,663.277 793.72,662.97 793.72,662.97C793.72,662.97 733.486,624.021 733.486,624.021L722.859,640.519Z"/>
            <g transform="matrix(1.18683,-8.90269e-06,-8.90269e-06,1,-242.206,0.0115413)">
                <path d="M1296.41,537.719L1417.41,537.823L1417.43,518.705L1296.42,518.6L1296.41,537.719Z"/>
            </g>
            <g transform="matrix(0.968397,-0.000162088,-0.000162088,0.999999,38.9668,0.199859)">
                <path d="M866.523,585.572L1230.03,586.994L1230.1,567.876L866.596,566.454L866.523,585.572Z"/>
            </g>
            <path d="M983.587,614.933C983.587,614.933 817.924,614.983 793.971,614.99C793.971,614.99 735.125,575.973 735.125,575.973L724.594,591.917L788.232,634.11L983.593,634.051L983.587,614.933Z"/>
            <path d="M857.266,1015.64L943.516,1089.91L1213.54,1088.91C1213.54,1088.91 1213.59,1227.12 1213.59,1227.12L1286.37,1322.22C1286.37,1322.22 1285.61,1430.63 1285.61,1430.63C1285.61,1430.63 659.994,1430.43 659.994,1430.43L659.988,1449.55L1304.55,1449.76L1305.5,1315.79L1232.67,1220.63C1232.67,1220.63 1232.61,1069.72 1232.61,1069.72L950.559,1070.77C950.559,1070.77 869.703,1001.14 869.703,1001.14L857.266,1015.64Z"/>
            <path d="M577.607,1388.28L942.625,1388.42C942.625,1388.42 1002.18,1445.32 1002.18,1445.32L1015.35,1431.48L950.267,1369.31L577.614,1369.17L577.607,1388.28Z"/>
            <path d="M1085.5,1432.45L952.363,1310.79L575.24,1310.61L575.231,1329.73C575.231,1329.73 906.187,1329.89 944.964,1329.91C944.964,1329.91 1072.64,1446.58 1072.64,1446.58L1085.5,1432.45Z"/>
            <path d="M753.015,1513.85L751.254,1513.85C722.092,1514.05 575.838,1515.28 575.838,1515.28L575.998,1534.39C575.998,1534.39 722.224,1533.16 751.381,1532.97L754.683,1532.95C756.429,1533.29 758.656,1533.12 761.204,1531.61C761.279,1531.57 761.552,1531.04 761.89,1530.18L762.314,1530.84C762.314,1530.84 763.494,1529.91 765.177,1528.58C782.285,1515.1 868.27,1447.44 868.27,1447.44L856.485,1432.41C856.485,1432.41 770.491,1500.08 753.382,1513.56L753.015,1513.85ZM748.529,1529.03C749.157,1529.84 749.911,1530.52 750.719,1531.11C750.884,1531.23 751.226,1531.5 751.723,1531.8C750.198,1531.02 749.198,1530.01 748.529,1529.03ZM746.876,1522.13L746.875,1522.14L746.879,1522.12L746.876,1522.13ZM746.998,1521.44L746.982,1521.53L746.995,1521.46L747.006,1521.41L746.998,1521.44ZM750.637,1515.72L750.421,1515.89C749.772,1516.41 749.48,1516.74 749.451,1516.78C748.835,1517.42 748.379,1518.04 748.04,1518.62C748.585,1517.64 749.395,1516.62 750.637,1515.72Z"/>
            <path d="M815.711,1467.1L576.6,1466.66L576.564,1485.78L815.676,1486.22L815.711,1467.1Z"/>
        </g>
        <g transform="matrix(0.807248,0.00573045,-0.00569504,0.80226,-292.886,181.525)">
            <g id="Layer3">
                <path d="M1436.51,476.333C1439.25,476.333 1441.48,478.579 1441.48,481.346C1441.48,484.113 1439.25,486.359 1436.51,486.359C1433.78,486.359 1431.55,484.113 1431.55,481.346C1431.55,478.579 1433.78,476.333 1436.51,476.333ZM1436.51,478.84C1437.88,478.84 1439,479.963 1439,481.346C1439,482.73 1437.88,483.853 1436.51,483.853C1435.14,483.853 1434.03,482.73 1434.03,481.346C1434.03,479.963 1435.14,478.84 1436.51,478.84Z" style="fill:rgb(165,69,45);"/>
                <path d="M1436.51,460.232C1424.97,460.232 1415.58,469.682 1415.58,481.346C1415.58,493.01 1424.97,502.461 1436.52,502.461C1448.06,502.461 1457.45,493.01 1457.45,481.347C1457.45,469.683 1448.06,460.232 1436.51,460.232ZM1436.52,492.434C1430.45,492.434 1425.5,487.476 1425.5,481.346C1425.5,475.216 1430.45,470.258 1436.51,470.258C1442.58,470.258 1447.52,475.216 1447.52,481.347C1447.52,487.476 1442.58,492.434 1436.52,492.434Z"/>
            </g>
        </g>
        <g transform="matrix(0.807248,0.00573045,-0.00569504,0.80226,-436.783,181.53)">
            <g id="Layer4">
                <path d="M1436.51,476.333C1439.25,476.333 1441.48,478.579 1441.48,481.346C1441.48,484.113 1439.25,486.359 1436.51,486.359C1433.78,486.359 1431.55,484.113 1431.55,481.346C1431.55,478.579 1433.78,476.333 1436.51,476.333ZM1436.51,478.84C1437.88,478.84 1439,479.963 1439,481.346C1439,482.73 1437.88,483.853 1436.51,483.853C1435.14,483.853 1434.03,482.73 1434.03,481.346C1434.03,479.963 1435.14,478.84 1436.51,478.84Z" style="fill:rgb(165,69,45);"/>
                <path d="M1436.51,460.232C1424.97,460.232 1415.58,469.682 1415.58,481.346C1415.58,493.01 1424.97,502.461 1436.52,502.461C1448.06,502.461 1457.45,493.01 1457.45,481.347C1457.45,469.683 1448.06,460.232 1436.51,460.232ZM1436.52,492.434C1430.45,492.434 1425.5,487.476 1425.5,481.346C1425.5,475.216 1430.45,470.258 1436.51,470.258C1442.58,470.258 1447.52,475.216 1447.52,481.347C1447.52,487.476 1442.58,492.434 1436.52,492.434Z"/>
            </g>
        </g>
        <g transform="matrix(0.807248,0.00573045,-0.00569504,0.80226,-436.951,229.635)">
            <g id="Layer5">
                <path d="M1436.51,476.333C1439.25,476.333 1441.48,478.579 1441.48,481.346C1441.48,484.113 1439.25,486.359 1436.51,486.359C1433.78,486.359 1431.55,484.113 1431.55,481.346C1431.55,478.579 1433.78,476.333 1436.51,476.333ZM1436.51,478.84C1437.88,478.84 1439,479.963 1439,481.346C1439,482.73 1437.88,483.853 1436.51,483.853C1435.14,483.853 1434.03,482.73 1434.03,481.346C1434.03,479.963 1435.14,478.84 1436.51,478.84Z" style="fill:rgb(165,69,45);"/>
                <path d="M1436.51,460.232C1424.97,460.232 1415.58,469.682 1415.58,481.346C1415.58,493.01 1424.97,502.461 1436.52,502.461C1448.06,502.461 1457.45,493.01 1457.45,481.347C1457.45,469.683 1448.06,460.232 1436.51,460.232ZM1436.52,492.434C1430.45,492.434 1425.5,487.476 1425.5,481.346C1425.5,475.216 1430.45,470.258 1436.51,470.258C1442.58,470.258 1447.52,475.216 1447.52,481.347C1447.52,487.476 1442.58,492.434 1436.52,492.434Z"/>
            </g>
        </g>
        <g transform="matrix(0.807248,0.00573045,-0.00569504,0.80226,139.097,613.612)">
            <g id="Layer6">
                <path d="M1436.51,476.333C1439.25,476.333 1441.48,478.579 1441.48,481.346C1441.48,484.113 1439.25,486.359 1436.51,486.359C1433.78,486.359 1431.55,484.113 1431.55,481.346C1431.55,478.579 1433.78,476.333 1436.51,476.333ZM1436.51,478.84C1437.88,478.84 1439,479.963 1439,481.346C1439,482.73 1437.88,483.853 1436.51,483.853C1435.14,483.853 1434.03,482.73 1434.03,481.346C1434.03,479.963 1435.14,478.84 1436.51,478.84Z" style="fill:rgb(165,69,45);"/>
                <path d="M1436.51,460.232C1424.97,460.232 1415.58,469.682 1415.58,481.346C1415.58,493.01 1424.97,502.461 1436.52,502.461C1448.06,502.461 1457.45,493.01 1457.45,481.347C1457.45,469.683 1448.06,460.232 1436.51,460.232ZM1436.52,492.434C1430.45,492.434 1425.5,487.476 1425.5,481.346C1425.5,475.216 1430.45,470.258 1436.51,470.258C1442.58,470.258 1447.52,475.216 1447.52,481.347C1447.52,487.476 1442.58,492.434 1436.52,492.434Z"/>
            </g>
        </g>
        <g transform="matrix(0.807248,0.00573045,-0.00569504,0.80226,139.19,1045.68)">
            <g id="Layer7">
                <path d="M1436.51,476.333C1439.25,476.333 1441.48,478.579 1441.48,481.346C1441.48,484.113 1439.25,486.359 1436.51,486.359C1433.78,486.359 1431.55,484.113 1431.55,481.346C1431.55,478.579 1433.78,476.333 1436.51,476.333ZM1436.51,478.84C1437.88,478.84 1439,479.963 1439,481.346C1439,482.73 1437.88,483.853 1436.51,483.853C1435.14,483.853 1434.03,482.73 1434.03,481.346C1434.03,479.963 1435.14,478.84 1436.51,478.84Z" style="fill:rgb(165,69,45);"/>
                <path d="M1436.51,460.232C1424.97,460.232 1415.58,469.682 1415.58,481.346C1415.58,493.01 1424.97,502.461 1436.52,502.461C1448.06,502.461 1457.45,493.01 1457.45,481.347C1457.45,469.683 1448.06,460.232 1436.51,460.232ZM1436.52,492.434C1430.45,492.434 1425.5,487.476 1425.5,481.346C1425.5,475.216 1430.45,470.258 1436.51,470.258C1442.58,470.258 1447.52,475.216 1447.52,481.347C1447.52,487.476 1442.58,492.434 1436.52,492.434Z"/>
            </g>
        </g>
        <g transform="matrix(0.807248,0.00573045,-0.00569504,0.80226,187.203,1069.71)">
            <g id="Layer8">
                <path d="M1436.51,476.333C1439.25,476.333 1441.48,478.579 1441.48,481.346C1441.48,484.113 1439.25,486.359 1436.51,486.359C1433.78,486.359 1431.55,484.113 1431.55,481.346C1431.55,478.579 1433.78,476.333 1436.51,476.333ZM1436.51,478.84C1437.88,478.84 1439,479.963 1439,481.346C1439,482.73 1437.88,483.853 1436.51,483.853C1435.14,483.853 1434.03,482.73 1434.03,481.346C1434.03,479.963 1435.14,478.84 1436.51,478.84Z" style="fill:rgb(165,69,45);"/>
                <path d="M1436.51,460.232C1424.97,460.232 1415.58,469.682 1415.58,481.346C1415.58,493.01 1424.97,502.461 1436.52,502.461C1448.06,502.461 1457.45,493.01 1457.45,481.347C1457.45,469.683 1448.06,460.232 1436.51,460.232ZM1436.52,492.434C1430.45,492.434 1425.5,487.476 1425.5,481.346C1425.5,475.216 1430.45,470.258 1436.51,470.258C1442.58,470.258 1447.52,475.216 1447.52,481.347C1447.52,487.476 1442.58,492.434 1436.52,492.434Z"/>
            </g>
        </g>
        <g transform="matrix(0.807248,0.00573045,-0.00569504,0.80226,-508.815,1045.58)">
            <g id="Layer9">
                <path d="M1436.51,476.333C1439.25,476.333 1441.48,478.579 1441.48,481.346C1441.48,484.113 1439.25,486.359 1436.51,486.359C1433.78,486.359 1431.55,484.113 1431.55,481.346C1431.55,478.579 1433.78,476.333 1436.51,476.333ZM1436.51,478.84C1437.88,478.84 1439,479.963 1439,481.346C1439,482.73 1437.88,483.853 1436.51,483.853C1435.14,483.853 1434.03,482.73 1434.03,481.346C1434.03,479.963 1435.14,478.84 1436.51,478.84Z" style="fill:rgb(165,69,45);"/>
                <path d="M1436.51,460.232C1424.97,460.232 1415.58,469.682 1415.58,481.346C1415.58,493.01 1424.97,502.461 1436.52,502.461C1448.06,502.461 1457.45,493.01 1457.45,481.347C1457.45,469.683 1448.06,460.232 1436.51,460.232ZM1436.52,492.434C1430.45,492.434 1425.5,487.476 1425.5,481.346C1425.5,475.216 1430.45,470.258 1436.51,470.258C1442.58,470.258 1447.52,475.216 1447.52,481.347C1447.52,487.476 1442.58,492.434 1436.52,492.434Z"/>
            </g>
        </g>
        <g transform="matrix(0.0153187,0,0,0.0153313,703.489,608.579)">
            <g id="Layer11">
                <ellipse cx="1084.32" cy="1013.93" rx="582.378" ry="582.703" style="fill:rgb(165,69,45);"/>
            </g>
        </g>
        <g transform="matrix(0.0152304,0,0,0.015243,1279.9,992.279)">
            <g id="Layer12">
                <ellipse cx="1084.32" cy="1013.93" rx="582.378" ry="582.703" style="fill:rgb(165,69,45);"/>
            </g>
        </g>
        <g transform="matrix(0.0153041,0,0,0.0153167,1327.5,1449.22)">
            <g id="Layer13">
                <ellipse cx="1084.32" cy="1013.93" rx="582.378" ry="582.703" style="fill:rgb(165,69,45);"/>
            </g>
        </g>
        <g transform="matrix(0.0152544,0,0,0.015267,1279.62,1424.82)">
            <g>
                <g id="Layer14">
                    <ellipse cx="1084.32" cy="1013.93" rx="582.378" ry="582.703" style="fill:rgb(165,69,45);"/>
                </g>
            </g>
        </g>
    </g>
</svg>
