<svg width="268" height="268" viewBox="0 0 268 268" fill="none" xmlns="http://www.w3.org/2000/svg">
<path d="M134 268C208.006 268 268 208.006 268 134C268 59.9938 208.006 0 134 0C59.9938 0 0 59.9938 0 134C0 208.006 59.9938 268 134 268Z" fill="#F56565"/>
<path d="M90.887 133.418V133.418C90.887 136.743 93.5823 139.438 96.9072 139.438H177.307C180.632 139.438 183.328 136.743 183.328 133.418C183.328 130.093 180.632 127.397 177.307 127.397H96.9072C93.5823 127.397 90.887 130.093 90.887 133.418Z" fill="#A6A6A6"/>
<path fill-rule="evenodd" clip-rule="evenodd" d="M109.784 127.385C110.248 129.326 110.494 131.351 110.494 133.434C110.494 135.516 110.248 137.542 109.784 139.482H164.931V127.385H109.784Z" fill="white"/>
<path fill-rule="evenodd" clip-rule="evenodd" d="M109.784 139.483H97.5327C94.1922 139.483 91.4842 136.775 91.4842 133.434C91.4842 130.094 94.1922 127.385 97.5327 127.385H109.785C107.06 115.986 96.8056 107.511 84.5717 107.511C70.2552 107.511 58.6494 119.117 58.6494 133.434C58.6494 147.75 70.2552 159.356 84.5717 159.356C96.8054 159.356 107.06 150.881 109.784 139.483ZM164.931 139.483V163.465L214.183 134.167L164.931 104.869V127.385H177.028C180.368 127.385 183.076 130.094 183.076 133.434C183.076 136.775 180.368 139.483 177.028 139.483H164.931Z" fill="black"/>
</svg>
